<?xml version="1.0" encoding="utf-8"?>
<!-- Generator: Adobe Illustrator 18.0.0, SVG Export Plug-In . SVG Version: 6.00 Build 0)  -->
<!DOCTYPE svg PUBLIC "-//W3C//DTD SVG 1.1//EN" "http://www.w3.org/Graphics/SVG/1.1/DTD/svg11.dtd">
<svg version="1.1" id="Layer_1" xmlns="http://www.w3.org/2000/svg" xmlns:xlink="http://www.w3.org/1999/xlink" x="0px" y="0px"
	 viewBox="0 0 1400 980" enable-background="new 0 0 1400 980" xml:space="preserve">
<g>
	<g>
		<path fill="#FDC16B" d="M317.4,896.1v-15.4c22.9-9.2,27.3-36.7,27.7-39.8l0-0.2v-24.8h12.3V208.7H350c-3.7,0-6.8-3-6.8-6.8v-30.4
			c0-3.7,3-6.8,6.8-6.8h10.5v-25.4l-1.3-1c-4.9-4-21.5-18.5-26.4-38.9V83.9h188v15.5c-5,20.5-21.5,35-26.4,38.9l-1.3,1v25.4h10.5
			c3.7,0,6.8,3,6.8,6.8v30.4c0,3.7-3,6.8-6.8,6.8h-7.4v607.1h12.3v24.8l0,0.2c0.4,3.1,4.8,30.6,27.7,39.8v15.4H317.4z"/>
		<rect x="401.4" y="228.4" fill="#F6DE87" width="51.2" height="587.1"/>
		<rect x="409.6" y="228.4" fill="#FCF5A6" width="34.8" height="587.1"/>
		<rect x="486.1" y="230" fill="#DD8C2B" width="7.2" height="583.8"/>
		<rect x="360.4" y="230" fill="#DD8C2B" width="7.2" height="583.8"/>
		<rect x="343.2" y="176.3" fill="#FCF5A6" width="167.2" height="19"/>
		<path fill="#EDA23D" d="M332.8,99.4c5,20.4,21.5,34.9,26.4,38.9l1.3,1v0.3h132.6v-0.3l1.3-1c4.9-4,21.5-18.4,26.4-38.9H332.8z"/>
		<path fill="#FDC16B" d="M364.5,99.4c3.3,20.4,14.3,34.9,17.5,38.9l0.8,1v0.3h87.9v-0.3l0.8-1c3.3-4,14.2-18.4,17.5-38.9H364.5z"/>
		<path fill="#F6DE87" d="M385.9,99.4c2.2,20.4,9.4,34.9,11.5,38.9l0.5,1v0.3h57.7v-0.3l0.5-1c2.2-4,9.3-18.4,11.5-38.9H385.9z"/>
		<path fill="#FCF5A6" d="M405.8,99.4c1.1,20.4,4.8,34.9,5.9,38.9l0.3,1v0.3h29.6v-0.3l0.3-1c1.1-4,4.8-18.4,5.9-38.9H405.8z"/>
		<path fill="#EDA23D" d="M345.1,840.5v0.2l0,0.2c-0.4,3.1-4.7,30.4-27.5,39.7h218.5c-22.7-9.3-27-36.6-27.5-39.7l0-0.2v-0.2H345.1z
			"/>
		<path fill="#FDC16B" d="M364.9,840.5v0.2l0,0.2c-0.3,3.1-3.6,30.4-20.8,39.7h165.6c-17.2-9.3-20.5-36.6-20.8-39.7l0-0.2v-0.2
			H364.9z"/>
		<path fill="#F6DE87" d="M382.1,840.5v0.2l0,0.2c-0.2,3.1-2.6,30.4-15,39.7h119.5c-12.4-9.3-14.8-36.6-15-39.7l0-0.2v-0.2H382.1z"
			/>
		<path fill="#FCF5A6" d="M403.9,840.5v0.2l0,0.2c-0.1,3.1-1.3,30.4-7.7,39.7h61.4c-6.4-9.3-7.6-36.6-7.7-39.7l0-0.2v-0.2H403.9z"/>
		<g>
			<path fill="#8E5322" d="M383.8,238.9c-7,0-12.7,5.7-12.7,12.7v11.7v502.6v11.7c0,7,5.7,12.7,12.7,12.7s12.7-5.7,12.7-12.7v-11.7
				V263.2v-11.7C396.4,244.5,390.8,238.9,383.8,238.9z M390,263.2v502.6v11.7c0,3.5-2.8,6.3-6.3,6.3c-3.5,0-6.3-2.8-6.3-6.3v-11.7
				V263.2v-11.7c0-3.5,2.8-6.3,6.3-6.3c3.5,0,6.3,2.8,6.3,6.3V263.2z"/>
			<path fill="#8E5322" d="M426.8,238.9c-7,0-12.7,5.7-12.7,12.7v11.7h0v514.3c0,7,5.7,12.7,12.7,12.7s12.7-5.7,12.7-12.7v-11.7h0
				V251.5C439.5,244.5,433.8,238.9,426.8,238.9z M433.1,263.2L433.1,263.2l0,514.3c0,3.5-2.8,6.3-6.3,6.3c-3.5,0-6.3-2.8-6.3-6.3
				v-11.7h0V251.5c0-3.5,2.8-6.3,6.3-6.3c3.5,0,6.3,2.8,6.3,6.3V263.2z"/>
			<path fill="#8E5322" d="M469.9,238.9c-7,0-12.7,5.7-12.7,12.7v11.7v502.6v11.7c0,7,5.7,12.7,12.7,12.7s12.7-5.7,12.7-12.7v-11.7
				V263.2v-11.7C482.6,244.5,476.9,238.9,469.9,238.9z M476.2,263.2v502.6v11.7c0,3.5-2.8,6.3-6.3,6.3c-3.5,0-6.3-2.8-6.3-6.3v-11.7
				V263.2v-11.7c0-3.5,2.8-6.3,6.3-6.3c3.5,0,6.3,2.8,6.3,6.3V263.2z"/>
			<path fill="#8E5322" d="M537.6,877.6c-21.3-8.5-25.4-35-25.7-37.2v-27.9h-12.3V212h4c5.6,0,10.1-4.5,10.1-10.1v-2v-26.3v-2
				c0-5.6-4.5-10.1-10.1-10.1h-7.2v-20.4c5-4,22.4-19.2,27.6-40.7l0.1-0.4V80.6H329.5v19.2l0.1,0.4c5.2,21.6,22.6,36.8,27.6,40.7
				v20.4H350c-5.6,0-10.1,4.5-10.1,10.1v2v26.3v2c0,5.6,4.5,10.1,10.1,10.1h4v600.5h-12.3v27.9c-0.3,2.2-4.3,28.6-25.7,37.2l-2,0.8
				v21h225.6v-21L537.6,877.6z M363.6,142.6h126.5v18.5H363.6V142.6z M517.8,87v9.2H335.9V87H517.8z M336.9,102.6h179.8
				c-5.9,17.9-20.9,30.6-24.5,33.5H361.5C357.9,133.3,342.9,120.5,336.9,102.6z M507.4,193.5H346.3v-13.5h161.1V193.5z M346.3,171.5
				c0-2,1.7-3.7,3.7-3.7h153.7c2,0,3.7,1.7,3.7,3.7v2H346.3V171.5z M346.3,201.9v-2h161.1v2c0,2-1.7,3.7-3.7,3.7H350
				C348,205.6,346.3,204,346.3,201.9z M493.2,212v12.5H360.4V212H493.2z M360.4,231h132.8v581.5H360.4V231z M348.1,818.9h157.4v18.5
				H348.1V818.9z M347.7,843.8H506c1.3,6.6,5.6,23,18.7,33.5H329C342.1,866.8,346.4,850.4,347.7,843.8z M320.4,893v-9.2h212.8v9.2
				H320.4z"/>
		</g>
		<g>
			<g>
				<path fill="#8E5322" d="M390,263.2v502.6v11.7c0,3.5-2.8,6.3-6.3,6.3c-3.5,0-6.3-2.8-6.3-6.3v-11.7V263.2v-11.7
					c0-3.5,2.8-6.3,6.3-6.3c3.5,0,6.3,2.8,6.3,6.3V263.2z"/>
			</g>
		</g>
		<g>
			<path fill="#BF763E" d="M390,263.2v502.6v11.7c0,3.5-2.8,6.3-6.3,6.3c-3.5,0-6.3-2.8-6.3-6.3v-11.7V263.2v-11.7
				c0-3.5,2.8-6.3,6.3-6.3c3.5,0,6.3,2.8,6.3,6.3V263.2z"/>
			<path fill="#FAA552" d="M383.8,780.5c-1.6,0-2.9-1.3-2.9-2.9v-526c0-1.6,1.3-2.9,2.9-2.9s2.9,1.3,2.9,2.9v526
				C386.7,779.1,385.4,780.5,383.8,780.5z"/>
			<path fill="#BF763E" d="M433.1,263.2L433.1,263.2l0,514.3c0,3.5-2.8,6.3-6.3,6.3c-3.5,0-6.3-2.8-6.3-6.3v-11.7h0V251.5
				c0-3.5,2.8-6.3,6.3-6.3c3.5,0,6.3,2.8,6.3,6.3V263.2z"/>
			<path fill="#FAA552" d="M426.8,780.5c-1.6,0-2.9-1.3-2.9-2.9l0-526c0-1.6,1.3-2.9,2.9-2.9s2.9,1.3,2.9,2.9l0,526
				C429.8,779.1,428.4,780.5,426.8,780.5z"/>
			<path fill="#BF763E" d="M476.2,263.2v502.6v11.7c0,3.5-2.8,6.3-6.3,6.3c-3.5,0-6.3-2.8-6.3-6.3v-11.7V263.2v-11.7
				c0-3.5,2.8-6.3,6.3-6.3c3.5,0,6.3,2.8,6.3,6.3V263.2z"/>
			<path fill="#FAA552" d="M469.9,780.5c-1.6,0-2.9-1.3-2.9-2.9v-526c0-1.6,1.3-2.9,2.9-2.9s2.9,1.3,2.9,2.9v526
				C472.8,779.1,471.5,780.5,469.9,780.5z"/>
		</g>
	</g>
	<g>
		<path fill="#FDC16B" d="M842.7,896.1v-15.4c23-9.2,27.3-36.7,27.7-39.8l0-0.2v-24.8h12.7l0.2-590h-3.6c-3.8,0-7-3.1-7-7V215
			c0-1.9,0.7-3.6,2.1-5l2.4-2.4l-2.4-2.4c-1.3-1.3-2.1-3.1-2.1-5v-3.8c0-1.9,0.7-3.6,2.1-5l2.4-2.4l-2.4-2.4c-1.3-1.3-2.1-3.1-2.1-5
			v-3.8c0-1.9,0.7-3.6,2.1-5l2.4-2.4l-2.4-2.4c-1.3-1.3-2.1-3.1-2.1-5v-3.8c0-3.8,3.1-7,7-7h3.3l0.1-3.3l0.3-19.6l-1.7-1
			c-5.1-2.9-22-13.7-27.1-30.3V83.9h195.6v14.5c-5.1,16.7-22.1,27.4-27.1,30.3l-1.7,1v22.9l3.3,0c3.8,0,7,3.1,7,7v3.8
			c0,1.9-0.7,3.6-2.1,5l-2.4,2.4l2.4,2.4c1.3,1.3,2.1,3.1,2.1,5v3.8c0,1.9-0.7,3.6-2.1,5l-2.4,2.4l2.4,2.4c1.3,1.3,2.1,3.1,2.1,5
			v3.8c0,1.9-0.7,3.6-2.1,5l-2.4,2.4l2.4,2.4c1.3,1.3,2.1,3.1,2.1,5v3.8c0,3.7-3,6.8-6.8,6.9l-3.2,0.1l-0.2,589.9h12.5v24.8l0,0.2
			c0.4,3.1,4.8,30.6,27.7,39.8v15.4H842.7z"/>
		<g>
			<rect x="926.8" y="226.9" fill="#F6DE87" width="51.2" height="588"/>
			<rect x="934.9" y="226.9" fill="#FCF5A6" width="34.8" height="588"/>
			<rect x="1011.4" y="228.5" fill="#DD8C2B" width="7.2" height="584.7"/>
			<rect x="885.8" y="228.5" fill="#DD8C2B" width="7.2" height="584.7"/>
		</g>
		<path fill="#EDA23D" d="M882.3,151l0,1.6H879c-3.8,0-7,3.1-7,7v3.8c0,1.9,0.7,3.6,2.1,5l2.4,2.4l-2.4,2.4c-1.3,1.3-2.1,3.1-2.1,5
			v3.8c0,1.9,0.7,3.6,2.1,5l2.4,2.4l-2.4,2.4c-1.3,1.3-2.1,3.1-2.1,5v3.8c0,1.9,0.7,3.6,2.1,5l2.4,2.4l-2.4,2.4
			c-1.3,1.3-2.1,3.1-2.1,5v3.8c0,3.8,3.1,7,7,7h3.6l0,1.1h138.3l0-1l3.2-0.1c3.7-0.1,6.8-3.2,6.8-6.9V215c0-1.9-0.7-3.6-2.1-5
			l-2.4-2.4l2.4-2.4c1.3-1.3,2.1-3.1,2.1-5v-3.8c0-1.9-0.7-3.6-2.1-5l-2.4-2.4l2.4-2.4c1.3-1.3,2.1-3.1,2.1-5v-3.8
			c0-1.9-0.7-3.6-2.1-5l-2.4-2.4l2.4-2.4c1.3-1.3,2.1-3.1,2.1-5v-3.8c0-3.8-3.1-7-7-7l-3.3,0V151H882.3z"/>
		<path fill="#FDC16B" d="M903.3,151l0,1.6H901c-2.7,0-4.8,3.1-4.8,7v3.8c0,1.9,0.5,3.6,1.5,5l1.7,2.4l-1.7,2.4
			c-0.9,1.3-1.5,3.1-1.5,5v3.8c0,1.9,0.5,3.6,1.5,5l1.7,2.4l-1.7,2.4c-0.9,1.3-1.5,3.1-1.5,5v3.8c0,1.9,0.5,3.6,1.5,5l1.7,2.4
			l-1.7,2.4c-0.9,1.3-1.5,3.1-1.5,5v3.8c0,3.8,2.2,7,4.8,7h2.5l0,1.1h96.3l0-1l2.3-0.1c2.6-0.1,4.7-3.2,4.7-6.9V215
			c0-1.9-0.5-3.6-1.5-5l-1.7-2.4l1.7-2.4c0.9-1.3,1.5-3.1,1.5-5v-3.8c0-1.9-0.5-3.6-1.5-5l-1.7-2.4l1.7-2.4c0.9-1.3,1.5-3.1,1.5-5
			v-3.8c0-1.9-0.5-3.6-1.5-5l-1.7-2.4l1.7-2.4c0.9-1.3,1.5-3.1,1.5-5v-3.8c0-3.8-2.2-7-4.8-7l-2.3,0V151H903.3z"/>
		<path fill="#F6DE87" d="M922.2,151l0,1.6h-1.4c-1.6,0-2.9,3.1-2.9,7v3.8c0,1.9,0.3,3.6,0.9,5l1,2.4l-1,2.4c-0.6,1.3-0.9,3.1-0.9,5
			v3.8c0,1.9,0.3,3.6,0.9,5l1,2.4l-1,2.4c-0.6,1.3-0.9,3.1-0.9,5v3.8c0,1.9,0.3,3.6,0.9,5l1,2.4l-1,2.4c-0.6,1.3-0.9,3.1-0.9,5v3.8
			c0,3.8,1.3,7,2.9,7h1.5l0,1.1h58.5l0-1l1.4-0.1c1.6-0.1,2.9-3.2,2.9-6.9V215c0-1.9-0.3-3.6-0.9-5l-1-2.4l1-2.4
			c0.6-1.3,0.9-3.1,0.9-5v-3.8c0-1.9-0.3-3.6-0.9-5l-1-2.4l1-2.4c0.6-1.3,0.9-3.1,0.9-5v-3.8c0-1.9-0.3-3.6-0.9-5l-1-2.4l1-2.4
			c0.6-1.3,0.9-3.1,0.9-5v-3.8c0-3.8-1.3-7-2.9-7l-1.4,0V151H922.2z"/>
		<path fill="#FCF5A6" d="M935.7,151l0,1.6h-0.7c-0.9,0-1.6,3.1-1.6,7v3.8c0,1.9,0.2,3.6,0.5,5l0.6,2.4l-0.6,2.4
			c-0.3,1.3-0.5,3.1-0.5,5v3.8c0,1.9,0.2,3.6,0.5,5l0.6,2.4l-0.6,2.4c-0.3,1.3-0.5,3.1-0.5,5v3.8c0,1.9,0.2,3.6,0.5,5l0.6,2.4
			l-0.6,2.4c-0.3,1.3-0.5,3.1-0.5,5v3.8c0,3.8,0.7,7,1.6,7h0.8l0,1.1h31.5l0-1l0.7-0.1c0.8-0.1,1.5-3.2,1.5-6.9V215
			c0-1.9-0.2-3.6-0.5-5l-0.6-2.4l0.6-2.4c0.3-1.3,0.5-3.1,0.5-5v-3.8c0-1.9-0.2-3.6-0.5-5l-0.6-2.4l0.6-2.4c0.3-1.3,0.5-3.1,0.5-5
			v-3.8c0-1.9-0.2-3.6-0.5-5l-0.6-2.4l0.6-2.4c0.3-1.3,0.5-3.1,0.5-5v-3.8c0-3.8-0.7-7-1.6-7l-0.8,0V151H935.7z"/>
		<path fill="#EDA23D" d="M1049.4,98.5H853.9c5,16.2,21.2,26.8,26.7,30h142.2C1028.3,125.3,1044.4,114.7,1049.4,98.5z"/>
		<path fill="#FDC16B" d="M1020.8,98.5H882.5c3.5,16.2,15,26.8,18.9,30h100.5C1005.8,125.3,1017.2,114.7,1020.8,98.5z"/>
		<path fill="#F6DE87" d="M997.8,98.5h-92.3c2.3,16.2,10,26.8,12.6,30h67.1C987.8,125.3,995.4,114.7,997.8,98.5z"/>
		<path fill="#FCF5A6" d="M973.2,98.5h-43c1.1,16.2,4.7,26.8,5.9,30h31.3C968.5,125.3,972.1,114.7,973.2,98.5z"/>
		<path fill="#EDA23D" d="M869.7,840.5v0.2l0,0.2c-0.4,3.1-4.7,30.4-27.5,39.7h218.5c-22.7-9.3-27-36.6-27.5-39.7l0-0.2v-0.2H869.7z
			"/>
		<path fill="#FDC16B" d="M889.4,840.5v0.2l0,0.2c-0.3,3.1-3.6,30.4-20.8,39.7h165.7c-17.2-9.3-20.5-36.6-20.8-39.7l0-0.2v-0.2
			H889.4z"/>
		<path fill="#F6DE87" d="M906.5,840.5v0.2l0,0.2c-0.2,3.1-2.6,30.4-15.1,39.7h120.1c-12.5-9.3-14.9-36.6-15.1-39.7l0-0.2v-0.2
			H906.5z"/>
		<path fill="#FCF5A6" d="M929.9,840.5v0.2l0,0.2c-0.1,3.1-1.2,30.4-7.2,39.7h57.5c-6-9.3-7.1-36.6-7.2-39.7l0-0.2v-0.2H929.9z"/>
		<g>
			<path fill="#8E5322" d="M909.1,238.9c-7,0-12.7,5.7-12.7,12.7v11.7v502.6v11.7c0,7,5.7,12.7,12.7,12.7s12.7-5.7,12.7-12.7v-11.7
				V263.2v-11.7C921.8,244.5,916.1,238.9,909.1,238.9z M915.4,263.2v502.6v11.7c0,3.5-2.8,6.3-6.3,6.3c-3.5,0-6.3-2.8-6.3-6.3v-11.7
				V263.2v-11.7c0-3.5,2.8-6.3,6.3-6.3c3.5,0,6.3,2.8,6.3,6.3V263.2z"/>
			<path fill="#8E5322" d="M952.2,238.9c-7,0-12.7,5.7-12.7,12.7v11.7h0v514.3c0,7,5.7,12.7,12.7,12.7s12.7-5.7,12.7-12.7v-11.7h0
				V251.5C964.8,244.5,959.1,238.9,952.2,238.9z M958.4,263.2L958.4,263.2l0,514.3c0,3.5-2.8,6.3-6.3,6.3s-6.3-2.8-6.3-6.3v-11.7h0
				V251.5c0-3.5,2.8-6.3,6.3-6.3c3.5,0,6.3,2.8,6.3,6.3V263.2z"/>
			<path fill="#8E5322" d="M995.2,238.9c-7,0-12.7,5.7-12.7,12.7v11.7v502.6v11.7c0,7,5.7,12.7,12.7,12.7s12.7-5.7,12.7-12.7v-11.7
				V263.2v-11.7C1007.9,244.5,1002.2,238.9,995.2,238.9z M1001.5,263.2v502.6v11.7c0,3.5-2.8,6.3-6.3,6.3c-3.5,0-6.3-2.8-6.3-6.3
				v-11.7V263.2v-11.7c0-3.5,2.8-6.3,6.3-6.3c3.5,0,6.3,2.8,6.3,6.3V263.2z"/>
			<path fill="#8E5322" d="M1062.9,877.6c-21.3-8.5-25.4-35-25.7-37.2v-27.9h-12.5l0.2-583.4c5.5-0.2,10-4.7,10-10.3V215
				c0-2.9-1.2-5.5-3.1-7.3c1.9-1.9,3.1-4.5,3.1-7.3v-3.8c0-2.9-1.2-5.5-3.1-7.3c1.9-1.9,3.1-4.5,3.1-7.3v-3.8c0-2.9-1.2-5.5-3.1-7.3
				c1.9-1.9,3.1-4.5,3.1-7.3v-3.8c0-5.7-4.6-10.3-10.3-10.3v-17.6c5.7-3.2,23.2-14.5,28.7-32.3l0.1-0.5V80.6H851.3V99l0.1,0.5
				c5.4,17.7,22.9,29,28.6,32.2l-0.3,17.6h0c-5.7,0-10.3,4.6-10.3,10.3v3.8c0,2.9,1.2,5.5,3.1,7.3c-1.9,1.9-3.1,4.5-3.1,7.3v3.8
				c0,2.9,1.2,5.5,3.1,7.3c-1.9,1.9-3.1,4.5-3.1,7.3v3.8c0,2.9,1.2,5.5,3.1,7.3c-1.9,1.9-3.1,4.5-3.1,7.3v3.8
				c0,5.7,4.6,10.3,10.3,10.3h0.3l-0.2,583.3h-12.7v27.9c-0.3,2.2-4.3,28.6-25.7,37.2l-2,0.8v21h225.6v-21L1062.9,877.6z
				 M879.7,204.3c-2.1,0-3.9-1.7-3.9-3.9v-3.8c0-2.1,1.7-3.9,3.9-3.9h145c2.1,0,3.9,1.7,3.9,3.9v3.8c0,2.1-1.7,3.9-3.9,3.9H879.7z
				 M879.7,185.8c-2.1,0-3.9-1.7-3.9-3.9v-3.8c0-2.1,1.7-3.9,3.9-3.9h145c2.1,0,3.9,1.7,3.9,3.9v3.8c0,2.1-1.7,3.9-3.9,3.9H879.7z
				 M1047.1,87v8.3H857.7V87H1047.1z M859.1,101.7h186.5c-6.4,14.1-21.7,23.1-25,24.9H884.1C880.7,124.8,865.5,115.8,859.1,101.7z
				 M886.4,133h131.9v16.3H886.1L886.4,133z M875.8,159.6c0-2.1,1.7-3.9,3.9-3.9h145c2.1,0,3.9,1.7,3.9,3.9v3.8
				c0,2.1-1.7,3.9-3.9,3.9h-145c-2.1,0-3.9-1.7-3.9-3.9V159.6z M879.7,222.7c-2.1,0-3.9-1.7-3.9-3.9V215c0-2.1,1.7-3.9,3.9-3.9h145
				c2.1,0,3.9,1.7,3.9,3.9v3.8c0,2.1-1.7,3.9-3.9,3.9H880H879.7z M886.4,229.8h132.2l-0.2,582.7H886.2L886.4,229.8z M873.5,818.9
				h157.4v18.5H873.5V818.9z M873,843.8h158.3c1.3,6.6,5.6,23,18.7,33.5H854.3C867.4,866.8,871.7,850.4,873,843.8z M845.8,893v-9.2
				h212.8v9.2H845.8z"/>
		</g>
		<g>
			<path fill="#BF763E" d="M915.4,263.2v502.6v11.7c0,3.5-2.8,6.3-6.3,6.3c-3.5,0-6.3-2.8-6.3-6.3v-11.7V263.2v-11.7
				c0-3.5,2.8-6.3,6.3-6.3c3.5,0,6.3,2.8,6.3,6.3V263.2z"/>
			<path fill="#FAA552" d="M909.1,780.5c-1.6,0-2.9-1.3-2.9-2.9v-526c0-1.6,1.3-2.9,2.9-2.9c1.6,0,2.9,1.3,2.9,2.9v526
				C912,779.1,910.7,780.5,909.1,780.5z"/>
			<path fill="#BF763E" d="M958.4,263.2L958.4,263.2l0,514.3c0,3.5-2.8,6.3-6.3,6.3s-6.3-2.8-6.3-6.3v-11.7h0V251.5
				c0-3.5,2.8-6.3,6.3-6.3c3.5,0,6.3,2.8,6.3,6.3V263.2z"/>
			<path fill="#FAA552" d="M952.2,780.5c-1.6,0-2.9-1.3-2.9-2.9l0-526c0-1.6,1.3-2.9,2.9-2.9s2.9,1.3,2.9,2.9l0,526
				C955.1,779.1,953.8,780.5,952.2,780.5z"/>
			<path fill="#BF763E" d="M1001.5,263.2v502.6v11.7c0,3.5-2.8,6.3-6.3,6.3c-3.5,0-6.3-2.8-6.3-6.3v-11.7V263.2v-11.7
				c0-3.5,2.8-6.3,6.3-6.3c3.5,0,6.3,2.8,6.3,6.3V263.2z"/>
			<path fill="#FAA552" d="M995.2,780.5c-1.6,0-2.9-1.3-2.9-2.9v-526c0-1.6,1.3-2.9,2.9-2.9c1.6,0,2.9,1.3,2.9,2.9v526
				C998.1,779.1,996.8,780.5,995.2,780.5z"/>
		</g>
	</g>
	<g>
		<path fill="#FDC16B" d="M579.2,896.1v-15.4c23-9.2,27.3-36.7,27.7-39.8l0-0.2v-24.8h7V306.4h-9.1v-13.8h14.5l-4.9-5.7
			c-0.1-0.1-0.1-0.1-0.2-0.2c-3.6-4.6-4.3-11.6-2-21c4.2-17.4,6.1-30.2,1.3-36.3c-1.9-2.5-4.9-3.7-8.9-3.7c-3.4,0-7.7,0.9-12.8,2.7
			c0.7-1,3-4,6.4-6.7l5.3-4l-6.4-1.8c-10.1-2.9-17-12.2-16.9-22.7c0.1-7.8,3.3-15.1,8.8-20.5c5.5-5.3,12.7-8.2,20.3-8.2l0.4,0
			l12.5,0v-25.1l0-0.2c-0.4-3.1-4.8-30.4-27.5-39.7l-0.1-0.1l-0.1,0V83.9h188v15.4l-0.1,0c-22.9,9.3-27.2,36.7-27.6,39.8l0,0.2v25.1
			l12.5,0l0.5,0c7.6,0,14.8,2.9,20.2,8.2c5.6,5.4,8.7,12.7,8.8,20.5c0.1,6.2-2.2,12.1-6.6,16.6c-2.8,2.9-6.4,5.1-10.3,6.2l-6.4,1.8
			l5.3,4c3.5,2.7,5.8,5.7,6.4,6.7c-5-1.8-9.4-2.7-12.8-2.7c-4,0-7,1.2-8.9,3.7c-4.8,6.1-2.9,18.9,1.3,36.3c2.3,9.3,1.6,16.4-2,21
			c-0.1,0.1-0.1,0.1-0.2,0.2l-4.9,5.7h14.5v13.8h-9.1v509.4h7v24.8l0,0.2c0.4,3.1,4.8,30.6,27.7,39.8v15.4H579.2z"/>
		<g>
			<rect x="663.3" y="303.4" fill="#F6DE87" width="51.2" height="514.9"/>
			<rect x="671.5" y="303.4" fill="#FCF5A6" width="34.8" height="514.9"/>
			<rect x="752.9" y="304.7" fill="#DD8C2B" width="7.2" height="512"/>
			<rect x="617.3" y="304.7" fill="#DD8C2B" width="7.2" height="512"/>
		</g>
		<path fill="#EDA23D" d="M623.8,198.5l-10,18.5l17,7.5c0,0,15.4-12.9,24.7-3.5c9.3,9.4,12.7,34.4,12.7,34.4l9.4-28.4l-4.4-4.1
			c0,0,6.3-8.5,17.1-9c10.7-0.5,16.9,6.9,16.9,6.9s-7,7.3-4.3,13.5s10,21.2,10,21.2s5.4-55.9,35.5-32.6h5l12.7-9l-12-15.3H623.8z"/>
		<path fill="#EDA23D" d="M608.5,840.5v0.2l0,0.2c-0.4,3.1-4.7,30.4-27.5,39.7h218.5c-22.7-9.3-27-36.6-27.5-39.7l0-0.2v-0.2H608.5z
			"/>
		<path fill="#FDC16B" d="M630.7,840.5v0.2l0,0.2c-0.3,3.1-3.4,30.4-20,39.7h159.2c-16.5-9.3-19.7-36.6-20-39.7l0-0.2v-0.2H630.7z"
			/>
		<path fill="#F6DE87" d="M648.8,840.5v0.2l0,0.2c-0.2,3.1-2.4,30.4-13.9,39.7h110.7c-11.5-9.3-13.7-36.6-13.9-39.7l0-0.2v-0.2
			H648.8z"/>
		<path fill="#FCF5A6" d="M668.5,840.5v0.2l0,0.2c-0.1,3.1-1.3,30.4-7.3,39.7h58.3c-6.1-9.3-7.2-36.6-7.3-39.7l0-0.2v-0.2H668.5z"/>
		<path fill="#EDA23D" d="M596.3,98.5v0.8l0.1,0l0.1,0.1c22.7,9.3,27,36.6,27.5,39.7l0,0.2v0.2h132.6v-0.2l0-0.2
			c0.4-3.1,4.7-30.5,27.6-39.8l0.1,0v-0.8H596.3z"/>
		<path fill="#FDC16B" d="M615.7,98.5v0.8l0.1,0l0.1,0.1c18,9.3,21.4,36.6,21.8,39.7l0,0.2v0.2h105.2v-0.2l0-0.2
			c0.3-3.1,3.7-30.5,21.9-39.8l0.1,0v-0.8H615.7z"/>
		<path fill="#F6DE87" d="M635.2,98.5v0.8l0.1,0l0.1,0.1c13.3,9.3,15.8,36.6,16.1,39.7l0,0.2v0.2h77.8v-0.2l0-0.2
			c0.2-3.1,2.8-30.5,16.2-39.8l0,0v-0.8H635.2z"/>
		<path fill="#FCF5A6" d="M670.8,98.5v0.8l0,0l0,0.1c4.7,9.3,5.6,36.6,5.7,39.7l0,0.2v0.2H704v-0.2l0-0.2c0.1-3.1,1-30.5,5.7-39.8
			l0,0v-0.8H670.8z"/>
		<g>
			<g>
				<path fill="#8E5322" d="M645.7,324.9c-7,0-12.7,5.7-12.7,12.7v11.7v416.6v11.7c0,7,5.7,12.7,12.7,12.7s12.7-5.7,12.7-12.7v-11.7
					V349.2v-11.7C658.3,330.5,652.6,324.9,645.7,324.9z M651.9,349.2v416.6v11.7c0,3.5-2.8,6.3-6.3,6.3s-6.3-2.8-6.3-6.3v-11.7
					V349.2v-11.7c0-3.5,2.8-6.3,6.3-6.3s6.3,2.8,6.3,6.3V349.2z"/>
				<path fill="#8E5322" d="M688.7,324.9c-7,0-12.7,5.7-12.7,12.7v11.7h0v428.3c0,7,5.7,12.7,12.7,12.7s12.7-5.7,12.7-12.7v-11.7h0
					V337.5C701.4,330.5,695.7,324.9,688.7,324.9z M695,349.2L695,349.2l0,428.3c0,3.5-2.8,6.3-6.3,6.3c-3.5,0-6.3-2.8-6.3-6.3v-11.7
					h0V337.5c0-3.5,2.8-6.3,6.3-6.3c3.5,0,6.3,2.8,6.3,6.3V349.2z"/>
				<path fill="#8E5322" d="M731.8,324.9c-7,0-12.7,5.7-12.7,12.7v11.7v416.6v11.7c0,7,5.7,12.7,12.7,12.7s12.7-5.7,12.7-12.7v-11.7
					V349.2v-11.7C744.4,330.5,738.7,324.9,731.8,324.9z M738,349.2v416.6v11.7c0,3.5-2.8,6.3-6.3,6.3s-6.3-2.8-6.3-6.3v-11.7V349.2
					v-11.7c0-3.5,2.8-6.3,6.3-6.3s6.3,2.8,6.3,6.3V349.2z"/>
				<path fill="#8E5322" d="M799.5,877.6c-21.3-8.5-25.4-35-25.7-37.2v-27.9h-7V309.8h5.9c1.8,0,3.2-1.4,3.2-3.2v-14.1
					c0-1.8-1.4-3.2-3.2-3.2h-7.4c0.2-0.2,0.3-0.4,0.5-0.6c4.3-5.4,5.2-13.5,2.7-23.8c-3.3-13.6-6.1-28.1-1.9-33.5
					c0.8-1,2.3-2.4,6.3-2.4c3.1,0,7.2,0.9,12,2.6c0.4,0.1,0.8,0.2,1.1,0.2c1.7,0,3.2-1.4,3.2-3.2c0-0.8-0.3-1.4-0.7-2
					c-0.7-1-3.2-4.5-7.3-7.6c4.4-1.3,8.5-3.7,11.8-7c5-5.1,7.6-11.8,7.5-18.9c-0.1-8.7-3.6-16.8-9.8-22.8c-6.2-6-14.4-9.3-23-9.2
					l-9.2,0v-21.5c0.3-2.2,4.3-28.6,25.7-37.2l0.1,0c0,0,0,0,0,0l2-0.8v-21H591.4v21l2,0.8c0,0,0,0,0,0l0.1,0
					c21.3,8.5,25.4,35,25.7,37.2v21.5l-9.1,0c-0.2,0-0.3,0-0.5,0c-8.5,0-16.5,3.2-22.6,9.2c-6.2,6-9.7,14.1-9.8,22.8
					c-0.2,12.3,8,22.7,19.3,26c-4.6,3.5-7.2,7.5-7.4,7.8c-0.7,1.2-0.7,2.6,0.2,3.7c0.9,1.1,2.3,1.5,3.6,1c4.9-1.7,8.9-2.6,12-2.6
					c3.9,0,5.5,1.4,6.3,2.4c4.2,5.3,1.4,19.9-1.9,33.5c-2.5,10.4-1.6,18.4,2.7,23.8c0.2,0.2,0.3,0.4,0.5,0.6h-7.4
					c-1.8,0-3.2,1.4-3.2,3.2v14.1c0,1.8,1.4,3.2,3.2,3.2h5.9v502.7h-7v27.9c-0.3,2.2-4.3,28.6-25.7,37.2l-2,0.8v21h225.6v-21
					L799.5,877.6z M761.5,227.5c-5.6,7.1-3.8,20.1,0.7,38.9c2,8.3,1.5,14.5-1.5,18.3c-3.3,4.2-8.9,4.5-10.5,4.5c-0.2,0-0.3,0-0.3,0
					c-0.1,0-0.1,0-0.2,0h-4.1c-2.8-15.3-6.2-49.8,5.7-61.5c5.1-5,10.2-7.6,15.2-7.6c3.3,0,6.2,1.1,8.7,2.6
					C769,222.2,764.4,223.8,761.5,227.5z M752.2,195.3h-127c-0.6-3.3-2-6.3-4.1-8.8h135.2C754.1,189,752.7,192,752.2,195.3z
					 M625.2,201.7h127c0.8,5.3,3.6,9.9,7.4,13.2c-3.6,1.2-7.1,3.3-10.6,6.2c-6.1-5.4-11.5-8-16.7-8c-13.2,0-19.2,17-22.6,33.2
					c-1.2-4.8-2.6-8.7-3.7-11c-2-4.5-2.1-7.2-1.8-8.8c2.6-0.7,4.6-0.8,4.8-0.8c1.3,0,2.4-0.7,2.9-1.9c0.5-1.1,0.3-2.5-0.5-3.4
					c-7.6-8.7-22.2-8.8-22.8-8.8c-0.6,0-15.2,0.1-22.8,8.8c-0.8,0.9-1,2.3-0.5,3.4c0.5,1.1,1.7,1.9,2.9,1.9c0,0,2.1,0,4.8,0.8
					c0.3,1.6,0.2,4.3-1.8,8.8c-1,2.3-2.4,6.2-3.7,11c-3.4-16.2-9.3-33.2-22.6-33.2c-5.1,0-10.6,2.6-16.7,8c-3.5-3-7-5.1-10.6-6.2
					C621.6,211.6,624.3,206.9,625.2,201.7z M734.2,251c2.6,19.6,3.2,33.9-11.7,38.1c-2.7-1.3-10.5-5.9-10.4-16.4
					c0.2-1.3,0.3-2.5,0.4-3.8c0,0,0-0.1,0-0.1c0.3-1.7,0.6-3.7,1-6c2.2-14,6.7-43.2,18.9-43.2c2.3,0,4.9,0.9,7.9,2.8
					c-3.3,1.5-6.8,5.1-7.3,13.7C732.8,240.3,733.5,245.5,734.2,251z M688.7,289.2c-6.6-0.6-11.2-3.2-14-8c-1.6-2.6-2.5-5.8-3-9.2
					c0-1.2-0.1-2.4-0.3-3.7c-0.6-11.4,3.1-24.5,5.8-30.5c1.4-3.3,2.1-6,2.4-8.3c2.4,1.7,4.7,4.3,6.3,7.9c0.5,1.2,1.7,2,2.9,2
					s2.4-0.8,2.9-2c1.6-3.7,3.8-6.2,6.3-7.9c0.2,2.3,0.9,5.1,2.4,8.3c2.7,6,6.3,19.1,5.8,30.5c-0.2,1.3-0.3,2.5-0.3,3.7
					c-0.5,3.4-1.4,6.6-3,9.2C699.9,286,695.3,288.7,688.7,289.2z M699.6,221.3c-3.7,1.5-7.7,4-10.9,8.4c-3.2-4.4-7.3-6.9-10.9-8.4
					c-0.3-0.4-0.6-0.7-0.8-1c5.6-2.3,11.6-2.4,11.7-2.4c0.1,0,6.2,0,11.7,2.4C700.2,220.6,699.9,220.9,699.6,221.3z M644.4,236.1
					c-0.4-8.7-3.9-12.3-7.3-13.7c2.9-1.9,5.5-2.8,7.9-2.8c12.2,0,16.8,29.1,18.9,43.2c0.4,2.3,0.7,4.3,1,6c0,0,0,0.1,0,0.1
					c0.1,1.3,0.2,2.5,0.3,3.8c0.1,10.5-7.8,15.2-10.5,16.5c-14.9-4.2-14.2-18.5-11.6-38.1C643.9,245.5,644.6,240.3,644.4,236.1z
					 M752.4,136.2h-7.2c0.7-6.2,3.9-20.7,18.5-33.5h7.5C758,113.2,753.7,129.6,752.4,136.2z M732.4,136.2
					c0.8-7.4,4.1-25.1,16.5-33.5h5.6C742,116,739.3,130,738.7,136.2H732.4z M718.1,136.2c1.4-9.7,5.5-27.5,13-33.5h8.1
					c-10,10.9-12.6,26.9-13.3,33.5H718.1z M705.3,136.2c0.3-8.8,1.6-25.2,5.8-33.5h11.6c-7,10.1-10,26.8-10.9,33.5H705.3z
					 M691.9,136.2v-33.5h12.2c-4.1,10.7-5,26.7-5.2,33.5H691.9z M678.6,136.2c-0.2-6.8-1.1-22.9-5.2-33.5h12.2v33.5H678.6z
					 M638.7,136.2c-0.6-6.2-3.3-20.2-15.7-33.5h5.6c12.3,8.4,15.6,26.2,16.5,33.5H638.7z M651.5,136.2c-0.7-6.7-3.3-22.6-13.3-33.5
					h8.1c7.5,6,11.5,23.8,13,33.5H651.5z M665.7,136.2c-0.9-6.7-3.9-23.4-10.9-33.5h11.6c4.5,9,5.5,26.4,5.7,33.5H665.7z M779.7,87
					v9.2h-49.6c0,0,0,0,0,0h-82.7c0,0,0,0,0,0h-49.6V87H779.7z M606.3,102.6h7.5c14.7,12.9,17.8,27.3,18.5,33.5H625
					C623.7,129.6,619.4,113.2,606.3,102.6z M625.5,161.1v-18.5H702h0h12.5c0,0,0,0,0,0c0,0,0,0,0,0H752v18.5H625.5z M583.4,193.2
					c0.1-7,2.9-13.5,7.9-18.3c5-4.9,11.6-7.5,18.6-7.4l78.8,0l78.9,0c7-0.1,13.5,2.5,18.5,7.4c5,4.9,7.8,11.4,7.9,18.3
					c0.1,5.4-1.9,10.5-5.7,14.4c-3.8,3.9-8.8,6.1-14.2,6.1c-0.1,0-0.2,0-0.2,0c-8.5,0-15.4-6.8-15.5-15.3c0-3.1,1.1-6.1,3.3-8.4
					c2.2-2.3,5.1-3.5,8.3-3.6c4.3,0,7.9,3,8.7,7.1c-1-3.3-4.1-5.7-7.7-5.7c0,0-0.1,0-0.1,0c-5.1,0.1-9.3,4.3-9.2,9.5
					c0.1,6,5,10.8,11,10.7c7.1-0.1,12.7-5.9,12.6-13c-0.1-8.3-6.9-15-15.2-15c-0.1,0-0.1,0-0.2,0H607.5c0,0,0,0,0,0
					c-8.3-0.1-15.2,6.6-15.3,15c-0.1,7.1,5.5,12.9,12.6,13c2.9,0,5.7-1,7.7-3.1c2.1-2,3.3-4.7,3.3-7.6c0.1-5.1-4.1-9.4-9.2-9.5
					c-2.2,0-4.2,0.8-5.8,2.3c-1,1-1.7,2.1-2.1,3.4c0.8-4.1,4.4-7.1,8.7-7c6.5,0.1,11.7,5.5,11.6,12c-0.1,8.5-7.1,15.3-15.5,15.3
					c-0.1,0-0.2,0-0.2,0C592.2,213.5,583.2,204.3,583.4,193.2z M616.7,284.8c-3-3.8-3.5-10-1.5-18.3c4.6-18.8,6.3-31.9,0.7-38.9
					c-2.5-3.2-6.3-4.8-11.3-4.8c-0.8,0-1.6,0-2.4,0.1c2.5-1.5,5.4-2.6,8.7-2.6c5,0,10.1,2.6,15.2,7.6c11.9,11.7,8.5,46.2,5.7,61.5
					h-4.1c-0.1,0-0.1,0-0.2,0c0,0-0.2,0-0.4,0C625.5,289.3,620,288.9,616.7,284.8z M607.9,295.7h80.8c0,0,0,0,0,0c0,0,0,0,0,0
					c0,0,0,0,0,0c0,0,0,0,0,0h80.8v7.7H607.9V295.7z M617,309.8h143.4v502.7H617V309.8z M610,818.9h157.4v18.5H610V818.9z
					 M609.5,843.8h158.3c1.3,6.6,5.6,23,18.7,33.5H590.9C604,866.8,608.3,850.4,609.5,843.8z M582.3,893v-9.2h212.8v9.2H582.3z"/>
			</g>
		</g>
		<g>
			<path fill="#BF763E" d="M651.9,349.2v416.6v11.7c0,3.5-2.8,6.3-6.3,6.3s-6.3-2.8-6.3-6.3v-11.7V349.2v-11.7
				c0-3.5,2.8-6.3,6.3-6.3s6.3,2.8,6.3,6.3V349.2z"/>
			<path fill="#FAA552" d="M645.7,780.5c-1.6,0-2.9-1.3-2.9-2.9v-440c0-1.6,1.3-2.9,2.9-2.9c1.6,0,2.9,1.3,2.9,2.9v440
				C648.6,779.1,647.3,780.5,645.7,780.5z"/>
			<path fill="#BF763E" d="M695,349.2L695,349.2l0,428.3c0,3.5-2.8,6.3-6.3,6.3c-3.5,0-6.3-2.8-6.3-6.3v-11.7h0V337.5
				c0-3.5,2.8-6.3,6.3-6.3c3.5,0,6.3,2.8,6.3,6.3V349.2z"/>
			<path fill="#FAA552" d="M688.7,780.5c-1.6,0-2.9-1.3-2.9-2.9l0-440c0-1.6,1.3-2.9,2.9-2.9c1.6,0,2.9,1.3,2.9,2.9l0,440
				C691.6,779.1,690.3,780.5,688.7,780.5z"/>
			<path fill="#BF763E" d="M738,349.2v416.6v11.7c0,3.5-2.8,6.3-6.3,6.3s-6.3-2.8-6.3-6.3v-11.7V349.2v-11.7c0-3.5,2.8-6.3,6.3-6.3
				s6.3,2.8,6.3,6.3V349.2z"/>
			<path fill="#FAA552" d="M731.8,780.5c-1.6,0-2.9-1.3-2.9-2.9v-440c0-1.6,1.3-2.9,2.9-2.9c1.6,0,2.9,1.3,2.9,2.9v440
				C734.7,779.1,733.4,780.5,731.8,780.5z"/>
		</g>
		<path fill="#EDA23D" d="M753.8,195.3h-127c-0.6-3.3-2-6.3-4.1-8.8h135.2C755.7,189,754.3,192,753.8,195.3z M592.9,174.9
			c5-4.9,11.6-7.5,18.6-7.4l78.8,0l78.9,0c7-0.1,13.5,2.5,18.5,7.4c5,4.9,7.8,11.4,7.9,18.3c0.1,5.4-1.9,10.5-5.7,14.4
			c-3.8,3.9-8.8,6.1-14.2,6.1c-0.1,0-0.2,0-0.2,0c-8.5,0-15.4-6.8-15.5-15.3c0-3.1,1.1-6.1,3.3-8.4c2.2-2.3,5.1-3.5,8.3-3.6
			c4.3,0,7.9,3,8.7,7.1c-1-3.3-4.1-5.7-7.7-5.7c0,0-0.1,0-0.1,0c-5.1,0.1-9.3,4.3-9.2,9.5c0.1,6,5,10.8,11,10.7
			c7.1-0.1,12.7-5.9,12.6-13c-0.1-8.3-6.9-15-15.2-15c-0.1,0-0.1,0-0.2,0H609.1c0,0,0,0,0,0c-8.3-0.1-15.2,6.6-15.3,15
			c-0.1,7.1,5.5,12.9,12.6,13c2.9,0,5.7-1,7.7-3.1c2.1-2,3.3-4.7,3.3-7.6c0.1-5.1-4.1-9.4-9.2-9.5c-2.2,0-4.2,0.8-5.8,2.3
			c-1,1-1.7,2.1-2.1,3.4c0.8-4.1,4.4-7.1,8.7-7c6.5,0.1,11.7,5.5,11.6,12c-0.1,8.5-7.1,15.3-15.5,15.3c-0.1,0-0.2,0-0.2,0
			c-11.1-0.2-20.1-9.4-19.9-20.5C585.1,186.2,587.9,179.7,592.9,174.9z"/>
		<path fill="#FCF5A6" d="M783.3,208.4c0.8-0.6,1.6-1.2,2.3-2c3-3.1,4.6-7.2,4.6-11.5c-0.1-10.1-8.5-18.3-18.5-18.3l-162.9,0l0,0
			c-10,0-18.3,8.2-18.4,18.2c-0.1,4.3,1.6,8.4,4.6,11.5c0.7,0.7,1.4,1.4,2.2,1.9c-5.4-2.9-9-8.6-8.9-15.1c0.1-6.1,2.5-11.7,6.9-16
			c4.3-4.1,9.9-6.4,15.9-6.4l158.1,0l0.4,0c5.9,0,11.6,2.3,15.8,6.4c4.4,4.2,6.8,9.9,6.9,16c0.1,4.5-1.6,8.8-4.8,12
			C786.2,206.5,784.8,207.6,783.3,208.4z M629.4,191.9c-0.2-0.7-0.5-1.4-0.8-2.1h123.3c-0.3,0.7-0.6,1.4-0.8,2.1H629.4z"/>
	</g>
	<g>
		<path fill="#FDC16B" d="M1105.3,896.1v-15.4c23-9.2,27.3-36.7,27.7-39.8l0-0.2v-24.8h12.7l0.2-596.1l-5,2.8
			c-4.6,2.6-9.7,3.9-15,3.9l-0.5,0c-21.2-0.3-38.2-17.8-37.9-39c0.4-26.1,21.9-47.4,48.1-47.4c0.2,0,0.5,0,0.7,0h8.9V105h-19.1v-21
			h177v21h-19.1V140l8.9,0c0.3,0,0.5,0,0.8,0c26.1,0,47.6,21.3,48,47.4c0.3,21.2-16.7,38.7-37.9,39l-0.5,0c-5,0-10-1.2-14.4-3.6
			l-4.9-2.6v70l0,2.9l-0.2,522.7h12.5v24.8l0,0.2c0.4,3.1,4.8,30.6,27.7,39.8v15.4H1105.3z"/>
		<g>
			<rect x="1189.4" y="220" fill="#F6DE87" width="51.2" height="594.9"/>
			<rect x="1197.5" y="220" fill="#FCF5A6" width="34.8" height="594.9"/>
			<rect x="1274" y="221.7" fill="#DD8C2B" width="7.2" height="591.5"/>
			<rect x="1148.4" y="221.7" fill="#DD8C2B" width="7.2" height="591.5"/>
		</g>
		<polygon fill="#EDA23D" points="1284.2,138.3 1284.2,105 1303.3,105 1303.3,103.3 1126.2,103.3 1126.2,105 1145.3,105 
			1145.3,138.3 		"/>
		<polygon fill="#FDC16B" points="1261,138.3 1261,105 1273.7,105 1273.7,103.3 1155.8,103.3 1155.8,105 1168.5,105 1168.5,138.3 		
			"/>
		<polygon fill="#F6DE87" points="1243.2,138.3 1243.2,105 1251,105 1251,103.3 1178.5,103.3 1178.5,105 1186.3,105 1186.3,138.3 		
			"/>
		<polygon fill="#FCF5A6" points="1225.1,138.3 1225.1,105 1228,105 1228,103.3 1201.5,103.3 1201.5,105 1204.4,105 1204.4,138.3 		
			"/>
		<path fill="#EDA23D" d="M1133,840.5v0.2l0,0.2c-0.4,3.1-4.7,30.4-27.5,39.7H1324c-22.7-9.3-27-36.6-27.5-39.7l0-0.2v-0.2H1133z"/>
		<path fill="#FDC16B" d="M1156.9,840.5v0.2l0,0.2c-0.3,3.1-3.3,30.4-19.4,39.7H1292c-16-9.3-19.1-36.6-19.4-39.7l0-0.2v-0.2H1156.9
			z"/>
		<path fill="#F6DE87" d="M1175.4,840.5v0.2l0,0.2c-0.2,3.1-2.3,30.4-13.2,39.7h105.3c-10.9-9.3-13-36.6-13.2-39.7l0-0.2v-0.2
			H1175.4z"/>
		<path fill="#FCF5A6" d="M1191.5,840.5v0.2l0,0.2c-0.1,3.1-1.3,30.4-7.8,39.7h62.2c-6.5-9.3-7.7-36.6-7.8-39.7l0-0.2v-0.2H1191.5z"
			/>
		<g>
			<path fill="#8E5322" d="M1287.5,293.1v-67.4c4.9,2.6,10.3,4,16,4c0.2,0,0.3,0,0.5,0c23-0.3,41.5-19.4,41.2-42.4
				c-0.4-28.4-23.8-51.1-52.1-50.7l-5.6,0v-28.4h19.1V80.6h-183.7v27.7h19.1v28.4l-5.5,0c-28.4-0.4-51.8,22.3-52.2,50.7
				c-0.3,23,18.1,42,41.2,42.4c0.2,0,0.3,0,0.5,0c5.9,0,11.6-1.5,16.6-4.3l-0.2,587.1h-12.7v27.9c-0.3,2.2-4.3,28.6-25.7,37.2
				l-2,0.8v21h225.6v-21l-2-0.8c-21.3-8.5-25.4-35-25.7-37.2v-27.9h-12.5L1287.5,293.1L1287.5,293.1z M1129.3,87h170.9v14.9h-170.9
				V87z M1281.1,108.3v28.4h-132.8v-28.4H1281.1z M1321.1,883.8v9.2h-212.8v-9.2H1321.1z M1312.6,877.4h-195.7
				c13.1-10.5,17.4-26.9,18.7-33.5h158.3C1295.2,850.4,1299.5,866.8,1312.6,877.4z M1293.4,818.9v18.5h-157.4v-18.5H1293.4z
				 M1171.7,196.4c7,0,12.7-5.7,12.7-12.7v-9.4h17.7v9.4c0,7,5.7,12.7,12.7,12.7s12.7-5.7,12.7-12.7v-9.4h17.7v9.4
				c0,7,5.7,12.7,12.7,12.7s12.7-5.7,12.7-12.7v-9.4h9.2c-0.8,0.6-1.5,1.3-2.2,2.1c-5.2,5.3-8,12.4-7.9,19.8
				c0.1,7.3,2.5,14.1,6.7,19.8h-123c4.3-5.7,6.6-12.6,6.7-19.8c0.1-7.4-2.7-14.5-7.9-19.8c-0.7-0.7-1.5-1.4-2.2-2.1h9.2v9.4
				C1159,190.7,1164.7,196.4,1171.7,196.4z M1165.4,183.7v-9.4h12.5v9.4c0,3.5-2.8,6.3-6.3,6.3S1165.4,187.2,1165.4,183.7z
				 M1208.5,183.7v-9.4h12.5v9.4c0,3.5-2.8,6.3-6.3,6.3S1208.5,187.2,1208.5,183.7z M1251.5,183.7v-9.4h12.5v9.4
				c0,3.5-2.8,6.3-6.3,6.3C1254.4,190,1251.5,187.2,1251.5,183.7z M1281.1,222.4v52.5h0l-0.2,537.5h-132.2l0.2-519.4h0.1v-70.7
				H1281.1z M1284.3,215.5c-4.5-4.4-7.3-10-8.1-16.1c-0.8-5.9,1.7-14.3,5.8-18.5c4-4.2,9.4-6.5,15.2-6.6c4.4-0.1,8.6,1.6,11.8,4.7
				c3.2,3.1,5,7.2,5,11.6c0.1,6.9-5.5,12.7-12.4,12.8c-5.2,0.1-9.5-4.1-9.6-9.3c-0.1-3.8,3-7,6.8-7c1.3,0,2.5,0.5,3.5,1.4
				c0.9,0.9,1.5,2.1,1.5,3.4c0,1.2-0.7,2.3-1.7,2.9c-1,0.6-1.5,1.7-1.5,2.8c0,2.4,2.7,3.9,4.7,2.7c2.9-1.7,4.9-4.9,4.8-8.5
				c0-3-1.3-5.8-3.4-7.9c-2.2-2.1-5-3.2-8-3.2c-7.3,0.1-13.2,6.2-13.1,13.5c0.1,8.7,7.2,15.6,15.8,15.6c0.1,0,0.2,0,0.2,0
				c10.5-0.2,18.9-8.8,18.7-19.3c-0.1-6.1-2.6-11.9-7-16.1c-4.4-4.3-10.2-6.6-16.3-6.5v0h-26.6h-25.3h-17.7h-25.3h-17.7H1159h-26.6
				v0c-6.1-0.1-11.9,2.2-16.3,6.5c-4.4,4.2-6.8,9.9-7,16c-0.1,3.8,0.9,7.5,3,10.7c3.6,5.5,9.4,8.7,15.8,8.8
				c4.2,0.1,8.2-1.5,11.3-4.5c3-2.9,4.7-6.9,4.8-11.1c0-2.6-0.6-5.2-2-7.3c-2.5-3.9-6.6-6.1-11.1-6.2c-6.2-0.1-11.4,4.9-11.5,11.1
				c-0.1,3.6,1.9,6.8,4.8,8.5c2.1,1.2,4.7-0.3,4.7-2.7c0-1.1-0.5-2.2-1.5-2.8c-1-0.6-1.7-1.7-1.7-2.9c0-1.3,0.5-2.5,1.5-3.4
				c0.9-0.9,2.2-1.4,3.5-1.4c1.9,0,3.6,0.8,4.9,2.1c1.5,1.5,2.2,4.5,1.7,6.6c-0.4,1.9-1.3,3.6-2.7,5c-1.8,1.8-4.2,2.7-6.7,2.7
				c-3.4,0-6.6-1.4-8.9-3.9c-2.5-2.6-3.9-7.9-3.3-11.5c0.6-3.4,2.2-6.6,4.8-9.1c3.2-3.1,7.3-4.7,11.8-4.7
				c11.8,0.2,21.3,10,21.2,21.8c-0.2,15.3-12.8,27.5-28.1,27.3c-19.5-0.3-35.1-16.4-34.9-35.9c0.4-24.8,20.9-44.7,45.7-44.4l78.7,0
				l78.1,0c0.2,0,0.4,0,0.7,0c24.5,0,44.6,19.8,45,44.4c0.1,9.4-3.4,18.4-10,25.2c-6.6,6.8-15.4,10.6-24.9,10.7
				C1296.6,223.5,1289.6,220.7,1284.3,215.5z"/>
			<path fill="#8E5322" d="M1171.7,790.2c7,0,12.7-5.7,12.7-12.7V293.1v-18.2v-30.2c0-7-5.7-12.7-12.7-12.7s-12.7,5.7-12.7,12.7
				v30.2v18.2v484.4C1159,784.5,1164.7,790.2,1171.7,790.2z M1165.4,293.1v-18.2v-30.2c0-3.5,2.8-6.3,6.3-6.3s6.3,2.8,6.3,6.3v48.4
				l0,0v484.4c0,3.5-2.8,6.3-6.3,6.3s-6.3-2.8-6.3-6.3V293.1z"/>
			<path fill="#8E5322" d="M1214.8,790.2c7,0,12.7-5.7,12.7-12.7v-11.7h0V293.1v-18.2v-30.2c0-7-5.7-12.7-12.7-12.7
				s-12.7,5.7-12.7,12.7v30.2h0v502.6C1202.1,784.5,1207.8,790.2,1214.8,790.2z M1208.5,765.8L1208.5,765.8l0-472.7v-18.2v-30.2
				c0-3.5,2.8-6.3,6.3-6.3s6.3,2.8,6.3,6.3v30.2h0v502.6c0,3.5-2.8,6.3-6.3,6.3s-6.3-2.8-6.3-6.3V765.8z"/>
			<path fill="#8E5322" d="M1257.8,790.2c7,0,12.7-5.7,12.7-12.7V293.1v-18.2v-30.2c0-7-5.7-12.7-12.7-12.7s-12.7,5.7-12.7,12.7
				v30.2v18.2v484.4C1245.1,784.5,1250.8,790.2,1257.8,790.2z M1251.5,293.1v-18.2v-30.2c0-3.5,2.8-6.3,6.3-6.3
				c3.5,0,6.3,2.8,6.3,6.3v30.2v18.2v484.4c0,3.5-2.8,6.3-6.3,6.3s-6.3-2.8-6.3-6.3V293.1z"/>
		</g>
		<g>
			<path fill="#BF763E" d="M1165.4,293.1v-18.2v-30.2c0-3.5,2.8-6.3,6.3-6.3s6.3,2.8,6.3,6.3v48.4h0v484.4c0,3.5-2.8,6.3-6.3,6.3
				s-6.3-2.8-6.3-6.3V293.1z"/>
			<path fill="#FAA552" d="M1171.7,780.5c-1.6,0-2.9-1.3-2.9-2.9V244.7c0-1.6,1.3-2.9,2.9-2.9c1.6,0,2.9,1.3,2.9,2.9v532.8
				C1174.6,779.1,1173.3,780.5,1171.7,780.5z"/>
			<path fill="#BF763E" d="M1208.5,765.8L1208.5,765.8l0-472.7v-18.2v-30.2c0-3.5,2.8-6.3,6.3-6.3s6.3,2.8,6.3,6.3v30.2h0v502.6
				c0,3.5-2.8,6.3-6.3,6.3s-6.3-2.8-6.3-6.3V765.8z"/>
			<path fill="#FAA552" d="M1214.8,780.5c-1.6,0-2.9-1.3-2.9-2.9l0-532.8c0-1.6,1.3-2.9,2.9-2.9c1.6,0,2.9,1.3,2.9,2.9l0,532.8
				C1217.7,779.1,1216.4,780.5,1214.8,780.5z"/>
			<path fill="#BF763E" d="M1251.5,293.1v-18.2v-30.2c0-3.5,2.8-6.3,6.3-6.3c3.5,0,6.3,2.8,6.3,6.3v30.2v18.2v484.4
				c0,3.5-2.8,6.3-6.3,6.3c-3.5,0-6.3-2.8-6.3-6.3V293.1z"/>
			<path fill="#FAA552" d="M1257.8,780.5c-1.6,0-2.9-1.3-2.9-2.9V244.7c0-1.6,1.3-2.9,2.9-2.9s2.9,1.3,2.9,2.9v532.8
				C1260.7,779.1,1259.4,780.5,1257.8,780.5z"/>
		</g>
		<path fill="#EDA23D" d="M1153.3,216c4.3-5.7,6.6-12.6,6.7-19.8c0.1-7.4-2.7-14.5-7.9-19.8c-0.7-0.7-1.5-1.4-2.2-2.1h9.2v9.4
			c0,7,5.7,12.7,12.7,12.7c7,0,12.7-5.7,12.7-12.7v-9.4h17.7v9.4c0,7,5.7,12.7,12.7,12.7s12.7-5.7,12.7-12.7v-9.4h17.7v9.4
			c0,7,5.7,12.7,12.7,12.7c7,0,12.7-5.7,12.7-12.7v-9.4h9.2c-0.8,0.6-1.5,1.3-2.2,2.1c-5.2,5.3-8,12.4-7.9,19.8
			c0.1,7.3,2.5,14.1,6.7,19.8H1153.3z M1165.4,183.7v-9.4h12.5v9.4c0,3.5-2.8,6.3-6.3,6.3C1168.2,190,1165.4,187.2,1165.4,183.7z
			 M1208.5,183.7v-9.4h12.5v9.4c0,3.5-2.8,6.3-6.3,6.3C1211.3,190,1208.5,187.2,1208.5,183.7z M1251.5,183.7v-9.4h12.5v9.4
			c0,3.5-2.8,6.3-6.3,6.3S1251.5,187.2,1251.5,183.7z M1293.1,143.1c0.2,0,0.4,0,0.7,0c24.5,0,44.6,19.8,45,44.4
			c0.1,9.4-3.4,18.4-10,25.2c-6.6,6.8-15.4,10.6-24.9,10.7c-7.4,0.1-14.4-2.7-19.7-7.8c-4.5-4.4-7.3-10-8.1-16.1
			c-0.8-5.9,1.7-14.3,5.8-18.5c4-4.2,9.4-6.5,15.2-6.6c4.4-0.1,8.6,1.6,11.8,4.7c3.2,3.1,5,7.2,5,11.6c0.1,6.9-5.5,12.7-12.4,12.8
			c-5.2,0.1-9.5-4.1-9.6-9.3c-0.1-3.8,3-7,6.8-7c1.3,0,2.5,0.5,3.5,1.4c0.9,0.9,1.5,2.1,1.5,3.4c0,1.2-0.7,2.3-1.7,2.9
			c-1,0.6-1.5,1.7-1.5,2.8c0,2.4,2.7,3.9,4.7,2.7c2.9-1.7,4.9-4.9,4.8-8.5c0-3-1.3-5.8-3.4-7.9c-2.2-2.1-5-3.2-8-3.2
			c-7.3,0.1-13.2,6.2-13.1,13.5c0.1,8.7,7.2,15.6,15.8,15.6c0.1,0,0.2,0,0.2,0c10.5-0.2,18.9-8.8,18.7-19.3
			c-0.1-6.1-2.6-11.9-7-16.1c-4.4-4.3-10.2-6.6-16.3-6.5v0h-26.6h-25.3h-17.7h-25.3h-17.7H1159h-26.6v0c-6.1-0.1-11.9,2.2-16.3,6.5
			c-4.4,4.2-6.8,9.9-7,16c-0.1,3.8,0.9,7.5,3,10.7c3.6,5.5,9.4,8.7,15.8,8.8c4.2,0.1,8.2-1.5,11.3-4.5c3-2.9,4.7-6.9,4.8-11.1
			c0-2.6-0.6-5.2-2-7.3c-2.5-3.9-6.6-6.1-11.1-6.2c-6.2-0.1-11.4,4.9-11.5,11.1c-0.1,3.6,1.9,6.8,4.8,8.5c2.1,1.2,4.7-0.3,4.7-2.7
			c0-1.1-0.5-2.2-1.5-2.8c-1-0.6-1.7-1.7-1.7-2.9c0-1.3,0.5-2.5,1.5-3.4c0.9-0.9,2.2-1.4,3.5-1.4c1.9,0,3.6,0.8,4.9,2.1
			c1.5,1.5,2.2,4.5,1.7,6.6c-0.4,1.9-1.3,3.6-2.7,5c-1.8,1.8-4.2,2.7-6.7,2.7c-3.4,0-6.6-1.4-8.9-3.9c-2.5-2.6-3.9-7.9-3.3-11.5
			c0.6-3.4,2.2-6.6,4.8-9.1c3.2-3.1,7.3-4.7,11.8-4.7c11.8,0.2,21.3,10,21.2,21.8c-0.2,15.3-12.8,27.5-28.1,27.3
			c-19.5-0.3-35.1-16.4-34.9-35.9c0.4-24.8,20.9-44.7,45.7-44.4l78.7,0L1293.1,143.1z"/>
		<g>
			<g>
				<g>
					<path fill="#FCF5A6" d="M1293.8,146.4c-0.2,0-0.4,0-0.7,0l-78.1,0l-78.7,0c-0.2,0-0.4,0-0.7,0c-22.7,0-41.4,18.4-41.7,41.1
						c-0.1,8.5,3.1,16.6,9.1,22.8c6,6.1,14,9.6,22.5,9.7l0.4,0c13.2,0,24.1-10.8,24.3-24c0.1-4.8-1.8-9.4-5.1-12.9
						c-2.9-2.9-6.5-4.8-10.5-5.3c4.1,1,7.8,3.6,10.2,7.3c1.7,2.7,2.6,5.9,2.6,9.2c-0.1,5.1-2.1,9.9-5.8,13.5
						c-3.6,3.5-8.3,5.4-13.4,5.4l-0.3,0c-7.6-0.1-14.3-3.9-18.5-10.3c-2.4-3.7-3.6-8-3.5-12.6c0.2-6.9,3-13.4,8-18.3
						c4.9-4.8,11.4-7.4,18.3-7.4l164.8,0l0.4,0c6.8,0,13.3,2.6,18.3,7.4c5,4.9,7.9,11.5,8,18.5c0.1,6-2.2,11.6-6.3,15.9
						c-4.2,4.3-9.7,6.7-15.7,6.8l-0.3,0c-10.4,0-19-8.5-19.2-18.9c-0.1-7.9,5.3-14.6,12.8-16.4c-4,0.6-7.7,2.4-10.6,5.4
						c-3.3,3.4-5.5,10.8-4.9,15.8c0.7,5.4,3.2,10.3,7.2,14.2c4.6,4.4,10.6,6.9,16.9,6.9l0.4,0c8.6-0.1,16.6-3.6,22.5-9.7
						c6-6.1,9.2-14.2,9.1-22.8C1335.2,164.9,1316.5,146.4,1293.8,146.4z"/>
				</g>
			</g>
		</g>
	</g>
	<g>
		<g>
			<path fill="#FDC16B" d="M58.1,896.1v-15.4c23-9.2,27.3-36.7,27.7-39.8l0-0.2v-24.8h12.3V209.9l-5.2,3.6
				c-3.1,2.1-6.7,3.3-10.5,3.3l-0.3,0c-6.2-0.1-12-2.6-16.3-7.1c-4.3-4.5-6.7-10.3-6.6-16.6c0.1-7.8,3.3-15.1,8.8-20.5
				c5.5-5.3,12.7-8.2,20.3-8.2l0.4,0l12.5,0v-25.1l0-0.2c-0.4-3.1-4.8-30.6-27.7-39.8V83.9h188v15.4c-22.9,9.2-27.3,36.7-27.7,39.8
				l0,0.2v25.1l12.5,0l0.5,0c7.6,0,14.8,2.9,20.2,8.2c5.6,5.4,8.7,12.7,8.8,20.5c0.1,6.2-2.2,12.1-6.6,16.6
				c-4.3,4.5-10.1,7-16.4,7.1l-0.3,0c-3.8,0-7.4-1.1-10.5-3.3l-5.2-3.6v605.9h12.3v24.8l0,0.2c0.4,3.1,4.8,30.6,27.7,39.8v15.4H58.1
				z"/>
			<rect x="142.2" y="229.4" fill="#F6DE87" width="51.2" height="584.8"/>
			<rect x="150.4" y="229.4" fill="#FCF5A6" width="34.8" height="584.8"/>
			<path fill="#EDA23D" d="M85.8,840.5v0.2l0,0.2c-0.4,3.1-4.7,30.4-27.5,39.7h218.5c-22.7-9.3-27-36.6-27.5-39.7l0-0.2v-0.2H85.8z"
				/>
			<path fill="#FDC16B" d="M104.9,840.5v0.2l0,0.2c-0.3,3.1-3.6,30.4-21,39.7h167.4c-17.4-9.3-20.7-36.6-21-39.7l0-0.2v-0.2H104.9z"
				/>
			<path fill="#F6DE87" d="M123.7,840.5v0.2l0,0.2c-0.2,3.1-2.5,30.4-14.7,39.7h117.2c-12.2-9.3-14.5-36.6-14.7-39.7l0-0.2v-0.2
				H123.7z"/>
			<path fill="#FCF5A6" d="M145.1,840.5v0.2l0,0.2c-0.1,3.1-1.3,30.4-7.5,39.7h60.1c-6.2-9.3-7.4-36.6-7.5-39.7l0-0.2v-0.2H145.1z"
				/>
			<path fill="#EDA23D" d="M233.9,139.6v-0.2l0-0.2c0.4-3.1,4.7-30.4,27.5-39.7H73.8c22.7,9.3,27,36.6,27.5,39.7l0,0.2v0.2H233.9z"
				/>
			<path fill="#FDC16B" d="M215,139.6v-0.2l0-0.2c0.3-3.1,3.4-30.4,19.6-39.7H100.5c16.2,9.3,19.3,36.6,19.6,39.7l0,0.2v0.2H215z"/>
			<path fill="#F6DE87" d="M196.5,139.6v-0.2l0-0.2c0.2-3.1,2.1-30.4,12-39.7h-81.8c9.9,9.3,11.8,36.6,12,39.7l0,0.2v0.2H196.5z"/>
			<path fill="#FCF5A6" d="M182.7,139.6v-0.2l0-0.2c0.1-3.1,1.1-30.4,6.3-39.7h-42.8c5.2,9.3,6.2,36.6,6.3,39.7l0,0.2v0.2H182.7z"/>
			<g>
				<g>
					<g>
						<g>
							<path fill="#8E5322" d="M124.5,238.9c-7,0-12.7,5.7-12.7,12.7v11.7v502.6v11.7c0,7,5.7,12.7,12.7,12.7
								c7,0,12.7-5.7,12.7-12.7v-11.7V263.2v-11.7C137.2,244.5,131.5,238.9,124.5,238.9z M130.8,263.2v502.6v11.7
								c0,3.5-2.8,6.3-6.3,6.3c-3.5,0-6.3-2.8-6.3-6.3v-11.7V263.2v-11.7c0-3.5,2.8-6.3,6.3-6.3c3.5,0,6.3,2.8,6.3,6.3V263.2z"/>
						</g>
					</g>
					<g>
						<g>
							<path fill="#8E5322" d="M167.6,238.9c-7,0-12.7,5.7-12.7,12.7v11.7h0v514.3c0,7,5.7,12.7,12.7,12.7s12.7-5.7,12.7-12.7v-11.7
								h0V251.5C180.2,244.5,174.5,238.9,167.6,238.9z M173.8,263.2L173.8,263.2l0,514.3c0,3.5-2.8,6.3-6.3,6.3
								c-3.5,0-6.3-2.8-6.3-6.3v-11.7h0V251.5c0-3.5,2.8-6.3,6.3-6.3c3.5,0,6.3,2.8,6.3,6.3V263.2z"/>
						</g>
					</g>
					<g>
						<g>
							<path fill="#8E5322" d="M210.6,238.9c-7,0-12.7,5.7-12.7,12.7v11.7v502.6v11.7c0,7,5.7,12.7,12.7,12.7s12.7-5.7,12.7-12.7
								v-11.7V263.2v-11.7C223.3,244.5,217.6,238.9,210.6,238.9z M216.9,263.2v502.6v11.7c0,3.5-2.8,6.3-6.3,6.3
								c-3.5,0-6.3-2.8-6.3-6.3v-11.7V263.2v-11.7c0-3.5,2.8-6.3,6.3-6.3c3.5,0,6.3,2.8,6.3,6.3V263.2z"/>
						</g>
					</g>
					<g>
						<g>
							<path fill="#8E5322" d="M278.3,877.6c-21.3-8.5-25.4-35-25.7-37.2v-27.9h-12.3V216.3c3.5,2.4,7.8,3.8,12.4,3.8
								c0.1,0,0.2,0,0.3,0c7.1-0.1,13.8-3,18.7-8.1c5-5.1,7.6-11.8,7.5-18.9c-0.1-8.7-3.6-16.8-9.8-22.8c-6.2-6-14.4-9.3-23-9.2
								l-9.2,0v-21.5c0.3-2.2,4.3-28.6,25.7-37.2l2-0.8v-21H70.2v21l2,0.8c21.3,8.5,25.4,35,25.7,37.2v21.5l-9.1,0
								c-8.7-0.1-16.9,3.1-23.1,9.2c-6.2,6-9.7,14.1-9.8,22.8c-0.1,7.1,2.6,13.8,7.5,18.9c5,5.1,11.6,8,18.7,8.1c0.1,0,0.2,0,0.3,0
								c4.6,0,8.9-1.4,12.4-3.8v596.2H82.5v27.9c-0.3,2.2-4.3,28.6-25.7,37.2l-2,0.8v21h225.6v-21L278.3,877.6z M101.2,209.5
								c1.4-2.4,2.4-5,2.9-7.8h127c0.5,2.8,1.4,5.5,2.9,7.8v15.1H101.2V209.5z M258.5,87v9.2H76.6V87H258.5z M85.2,102.6H250
								c-13.1,10.5-17.4,26.9-18.7,33.5H103.8C102.6,129.6,98.3,113.2,85.2,102.6z M104.3,161.1v-18.5h126.5v18.5H104.3z
								 M82.4,213.7c-0.1,0-0.2,0-0.2,0c-5.4-0.1-10.4-2.3-14.2-6.1c-3.8-3.9-5.8-9-5.7-14.4c0.2-14.4,12.1-25.9,26.5-25.7l78.8,0
								l78.9,0c7-0.1,13.5,2.5,18.5,7.4c5,4.9,7.8,11.4,7.9,18.3c0.2,11.1-8.8,20.3-19.9,20.5c-8.6,0.1-15.6-6.7-15.8-15.3
								c-0.1-6.5,5.1-11.9,11.6-12c2.4,0,4.6,0.8,6.3,2.5c1.3,1.3,2.1,2.8,2.5,4.6c-0.4-1.3-1.1-2.4-2.1-3.4
								c-1.6-1.5-3.6-2.3-5.8-2.3c-5.1,0.1-9.3,4.3-9.2,9.5c0.1,6,5,10.8,11,10.7c3.4-0.1,6.6-1.4,9-3.9c2.4-2.5,3.7-5.7,3.6-9.1
								c-0.1-4.1-1.7-7.8-4.6-10.7c-2.9-2.8-6.8-4.4-10.8-4.3c-8.9,0.1-16.3,6.7-17.7,15.2h-127c-1.4-8.5-8.7-15.1-17.7-15.2
								c-4.1-0.1-7.9,1.5-10.8,4.3c-2.9,2.8-4.5,6.6-4.6,10.7c-0.1,3.4,1.2,6.6,3.6,9.1c2.4,2.5,5.6,3.8,9,3.9c0.1,0,0.1,0,0.2,0
								c5.9,0,10.8-4.8,10.9-10.7c0.1-5.1-4.1-9.4-9.2-9.5c-3.7-0.1-6.8,2.4-7.9,5.7c0.3-1.7,1.2-3.3,2.5-4.6
								c1.7-1.6,3.9-2.5,6.3-2.5c6.5,0.1,11.7,5.5,11.6,12C97.8,206.9,90.9,213.7,82.4,213.7z M101.2,231H234v581.5H101.2V231z
								 M88.9,818.9h157.4v18.5H88.9V818.9z M88.4,843.8h158.3c1.3,6.6,5.6,23,18.7,33.5H69.7C82.8,866.8,87.1,850.4,88.4,843.8z
								 M61.2,893v-9.2H274v9.2H61.2z"/>
						</g>
					</g>
				</g>
			</g>
			<g>
				<g>
					<path fill="#BF763E" d="M130.8,263.2v502.6v11.7c0,3.5-2.8,6.3-6.3,6.3c-3.5,0-6.3-2.8-6.3-6.3v-11.7V263.2v-11.7
						c0-3.5,2.8-6.3,6.3-6.3c3.5,0,6.3,2.8,6.3,6.3V263.2z"/>
					<g>
						<path fill="#FAA552" d="M124.5,780.5c-1.6,0-2.9-1.3-2.9-2.9v-526c0-1.6,1.3-2.9,2.9-2.9c1.6,0,2.9,1.3,2.9,2.9v526
							C127.4,779.1,126.1,780.5,124.5,780.5z"/>
					</g>
					<path fill="#BF763E" d="M173.8,263.2L173.8,263.2l0,514.3c0,3.5-2.8,6.3-6.3,6.3c-3.5,0-6.3-2.8-6.3-6.3v-11.7h0V251.5
						c0-3.5,2.8-6.3,6.3-6.3c3.5,0,6.3,2.8,6.3,6.3V263.2z"/>
					<g>
						<path fill="#FAA552" d="M167.6,780.5c-1.6,0-2.9-1.3-2.9-2.9l0-526c0-1.6,1.3-2.9,2.9-2.9c1.6,0,2.9,1.3,2.9,2.9l0,526
							C170.5,779.1,169.2,780.5,167.6,780.5z"/>
					</g>
					<path fill="#BF763E" d="M216.9,263.2v502.6v11.7c0,3.5-2.8,6.3-6.3,6.3c-3.5,0-6.3-2.8-6.3-6.3v-11.7V263.2v-11.7
						c0-3.5,2.8-6.3,6.3-6.3c3.5,0,6.3,2.8,6.3,6.3V263.2z"/>
					<g>
						<path fill="#FAA552" d="M210.6,780.5c-1.6,0-2.9-1.3-2.9-2.9v-526c0-1.6,1.3-2.9,2.9-2.9s2.9,1.3,2.9,2.9v526
							C213.5,779.1,212.2,780.5,210.6,780.5z"/>
					</g>
				</g>
			</g>
			<path fill="#FCF5A6" d="M262.7,177.3c-4.3-4.1-9.9-6.4-15.8-6.4l-0.4,0l-78.9,0l-78.9,0l-0.4,0c-12.3,0-22.5,10-22.7,22.4
				c-0.1,4.5,1.6,8.8,4.8,12c1.2,1.3,2.6,2.3,4.1,3.1c-1.6-1.1-3-2.5-4.1-4.2c-1.9-2.8-2.8-6-2.7-9.3c0.1-4.9,2.1-9.5,5.6-12.9
				c3.5-3.4,8-5.2,12.9-5.2l0.3,0c4.3,0.1,8.4,1.4,11.8,3.7c10.6,7.2,23,11.5,35.8,11.5h67.1c12.8,0,25.2-4.3,35.8-11.5
				c3.4-2.3,7.4-3.6,11.7-3.7l0.3,0c4.8,0,9.4,1.9,12.9,5.2c3.5,3.4,5.5,8.1,5.6,13c0.1,3.3-0.9,6.5-2.7,9.3c-1.1,1.7-2.5,3-4,4.1
				c1.5-0.8,2.9-1.9,4.1-3.1c3.1-3.2,4.8-7.5,4.8-12C269.5,187.2,267,181.5,262.7,177.3z"/>
		</g>
		<rect x="226.8" y="231" fill="#DD8C2B" width="7.2" height="581.5"/>
		<rect x="101.2" y="231" fill="#DD8C2B" width="7.2" height="581.5"/>
	</g>
</g>
</svg>
