<?xml version="1.0" encoding="UTF-8" standalone="no"?>
<!-- Created with Inkscape (http://www.inkscape.org/) -->

<svg
   xmlns:osb="http://www.openswatchbook.org/uri/2009/osb"
   xmlns:dc="http://purl.org/dc/elements/1.1/"
   xmlns:cc="http://creativecommons.org/ns#"
   xmlns:rdf="http://www.w3.org/1999/02/22-rdf-syntax-ns#"
   xmlns:svg="http://www.w3.org/2000/svg"
   xmlns="http://www.w3.org/2000/svg"
   xmlns:sodipodi="http://sodipodi.sourceforge.net/DTD/sodipodi-0.dtd"
   xmlns:inkscape="http://www.inkscape.org/namespaces/inkscape"
   width="210mm"
   height="297mm"
   viewBox="0 0 210 297"
   version="1.1"
   id="svg5304"
   inkscape:version="0.92.4 (5da689c313, 2019-01-14)"
   sodipodi:docname="lvl_3_JU.svg">
  <defs
     id="defs5298">
    <inkscape:perspective
       sodipodi:type="inkscape:persp3d"
       inkscape:vp_x="1593.8176 : 26.705039 : 1"
       inkscape:vp_y="0 : 7601.3112 : 0"
       inkscape:vp_z="-410.03452 : 153.76979 : 1"
       inkscape:persp3d-origin="404.71867 : -58.521432 : 1"
       id="perspective6615" />
    <linearGradient
       id="linearGradient6431"
       osb:paint="solid">
      <stop
         style="stop-color:#b90a53;stop-opacity:1;"
         offset="0"
         id="stop6429" />
    </linearGradient>
    <inkscape:perspective
       sodipodi:type="inkscape:persp3d"
       inkscape:vp_x="-113.73265 : 125.3172 : 1"
       inkscape:vp_y="0 : 2011.1803 : 0"
       inkscape:vp_z="449.54924 : 153.33607 : 1"
       inkscape:persp3d-origin="176.48907 : 24.362831 : 1"
       id="perspective5306" />
    <inkscape:perspective
       sodipodi:type="inkscape:persp3d"
       inkscape:vp_x="-68.082231 : 172.69745 : 1"
       inkscape:vp_y="0 : 1434.2155 : 0"
       inkscape:vp_z="354.20068 : 172.69745 : 1"
       inkscape:persp3d-origin="143.05921 : 101.70379 : 1"
       id="perspective5306-6" />
    <inkscape:perspective
       sodipodi:type="inkscape:persp3d"
       inkscape:vp_x="-11.278798 : 138.15047 : 1"
       inkscape:vp_y="0 : 787.8306 : 0"
       inkscape:vp_z="277.42143 : 149.12616 : 1"
       inkscape:persp3d-origin="137.46923 : 98.604075 : 1"
       id="perspective5306-1" />
    <inkscape:perspective
       sodipodi:type="inkscape:persp3d"
       inkscape:vp_x="-46.380287 : 119.11059 : 1"
       inkscape:vp_y="0 : 705.04396 : 0"
       inkscape:vp_z="294.34218 : 129.17758 : 1"
       inkscape:persp3d-origin="149.20528 : 110.38205 : 1"
       id="perspective5306-0" />
  </defs>
  <sodipodi:namedview
     id="base"
     pagecolor="#ffffff"
     bordercolor="#666666"
     borderopacity="1.0"
     inkscape:pageopacity="0.0"
     inkscape:pageshadow="2"
     inkscape:zoom="3.0136966"
     inkscape:cx="354.35229"
     inkscape:cy="573.39208"
     inkscape:document-units="mm"
     inkscape:current-layer="layer1"
     showgrid="false"
     inkscape:window-width="1920"
     inkscape:window-height="1017"
     inkscape:window-x="-8"
     inkscape:window-y="-8"
     inkscape:window-maximized="1" />
  <metadata
     id="metadata5301">
    <rdf:RDF>
      <cc:Work
         rdf:about="">
        <dc:format>image/svg+xml</dc:format>
        <dc:type
           rdf:resource="http://purl.org/dc/dcmitype/StillImage" />
        <dc:title></dc:title>
      </cc:Work>
    </rdf:RDF>
  </metadata>
  <g
     inkscape:label="Layer 1"
     inkscape:groupmode="layer"
     id="layer1">
    <g
       sodipodi:type="inkscape:box3d"
       id="g6503"
       style="opacity:0.86799999;fill:#8787be;fill-opacity:1"
       inkscape:perspectiveID="#perspective5306"
       inkscape:corner0="0.83045816 : -0.0045277069 : 0 : 1"
       inkscape:corner7="0.40193245 : -0.036858797 : 0.25 : 1">
      <path
         sodipodi:type="inkscape:box3dside"
         id="path6505"
         style="fill:#353564;fill-rule:evenodd;stroke:none;stroke-linejoin:round"
         inkscape:box3dsidetype="6"
         d="M 44.81876,231.81005 V 267.3332 L 93.453539,252.47238 V 221.21789 Z"
         points="44.81876,267.3332 93.453539,252.47238 93.453539,221.21789 44.81876,231.81005 " />
      <path
         sodipodi:type="inkscape:box3dside"
         id="path6513"
         style="fill:#afafde;fill-rule:evenodd;stroke:none;stroke-linejoin:round"
         inkscape:box3dsidetype="13"
         d="M 44.81876,267.3332 93.282833,296.57045 147.19945,273.4299 93.453539,252.47238 Z"
         points="93.282833,296.57045 147.19945,273.4299 93.453539,252.47238 44.81876,267.3332 " />
      <path
         sodipodi:type="inkscape:box3dside"
         id="path6515"
         style="fill:#e9e9ff;fill-rule:evenodd;stroke:none;stroke-linejoin:round"
         inkscape:box3dsidetype="11"
         d="m 93.453539,221.21789 53.745911,12.84984 V 273.4299 L 93.453539,252.47238 Z"
         points="147.19945,234.06773 147.19945,273.4299 93.453539,252.47238 93.453539,221.21789 " />
      <path
         sodipodi:type="inkscape:box3dside"
         id="path6507"
         style="fill:#6d9f4d;fill-opacity:1;fill-rule:evenodd;stroke:none;stroke-linejoin:round"
         inkscape:box3dsidetype="5"
         d="M 44.81876,231.81005 93.282833,250.18901 147.19945,234.06773 93.453539,221.21789 Z"
         points="93.282833,250.18901 147.19945,234.06773 93.453539,221.21789 44.81876,231.81005 " />
      <path
         sodipodi:type="inkscape:box3dside"
         id="path6511"
         style="fill:#d7ffec;fill-opacity:1;fill-rule:evenodd;stroke:none;stroke-linejoin:round"
         inkscape:box3dsidetype="14"
         d="m 93.282833,250.18901 v 46.38144 L 147.19945,273.4299 v -39.36217 z"
         points="93.282833,296.57045 147.19945,273.4299 147.19945,234.06773 93.282833,250.18901 " />
      <path
         sodipodi:type="inkscape:box3dside"
         id="path6509"
         style="fill:#97bf86;fill-opacity:1;fill-rule:evenodd;stroke:none;stroke-linejoin:round"
         inkscape:box3dsidetype="3"
         d="m 44.81876,231.81005 48.464073,18.37896 v 46.38144 L 44.81876,267.3332 Z"
         points="93.282833,250.18901 93.282833,296.57045 44.81876,267.3332 44.81876,231.81005 " />
    </g>
    <g
       sodipodi:type="inkscape:box3d"
       id="g6587"
       style="opacity:0.86799999;fill:#8787be;fill-opacity:1"
       inkscape:perspectiveID="#perspective5306"
       inkscape:corner0="0.40077736 : 0.015695626 : 0 : 1"
       inkscape:corner7="0.40077736 : 0.015695626 : 0.25 : 1">
      <path
         sodipodi:type="inkscape:box3dside"
         id="path6589"
         style="fill:#353564;fill-rule:evenodd;stroke:none;stroke-linejoin:round"
         inkscape:box3dsidetype="6"
         d="m 93.453539,221.21789 v 0 l 53.928491,-11.74506 v 0 z"
         points="93.453539,221.21789 147.38203,209.47283 147.38203,209.47283 93.453539,221.21789 " />
      <path
         sodipodi:type="inkscape:box3dside"
         id="path6597"
         style="fill:#afafde;fill-rule:evenodd;stroke:none;stroke-linejoin:round"
         inkscape:box3dsidetype="13"
         d="m 93.453539,221.21789 0,0 53.928491,-11.74506 0,0 z"
         points="93.453539,221.21789 147.38203,209.47283 147.38203,209.47283 93.453539,221.21789 " />
      <path
         sodipodi:type="inkscape:box3dside"
         id="path6595"
         style="fill:#d7d7ff;fill-rule:evenodd;stroke:none;stroke-linejoin:round"
         inkscape:box3dsidetype="14"
         d="m 93.453539,221.21789 v 0 l 53.928491,-11.74506 v 0 z"
         points="93.453539,221.21789 147.38203,209.47283 147.38203,209.47283 93.453539,221.21789 " />
      <path
         sodipodi:type="inkscape:box3dside"
         id="path6599"
         style="fill:#e9e9ff;fill-rule:evenodd;stroke:none;stroke-linejoin:round"
         inkscape:box3dsidetype="11"
         d="m 147.38203,209.47283 0,0 v 0 l 0,0 z"
         points="147.38203,209.47283 147.38203,209.47283 147.38203,209.47283 147.38203,209.47283 " />
      <path
         sodipodi:type="inkscape:box3dside"
         id="path6591"
         style="fill:#4d4d9f;fill-rule:evenodd;stroke:none;stroke-linejoin:round"
         inkscape:box3dsidetype="5"
         d="m 93.453539,221.21789 0,0 53.928491,-11.74506 0,0 z"
         points="93.453539,221.21789 147.38203,209.47283 147.38203,209.47283 93.453539,221.21789 " />
      <path
         sodipodi:type="inkscape:box3dside"
         id="path6593"
         style="fill:#8686bf;fill-rule:evenodd;stroke:none;stroke-linejoin:round"
         inkscape:box3dsidetype="3"
         d="m 93.453539,221.21789 0,0 v 0 l 0,0 z"
         points="93.453539,221.21789 93.453539,221.21789 93.453539,221.21789 93.453539,221.21789 " />
    </g>
    <path
       inkscape:connector-curvature="0"
       id="path6715"
       style="fill:#353564;fill-opacity:1;fill-rule:evenodd;stroke:none;stroke-linejoin:round"
       d="m 52.185144,196.13915 v 37.4975 l 42.725691,-9.67412 v -33.46566 z" />
    <path
       inkscape:connector-curvature="0"
       id="path6717"
       style="fill:#afafde;fill-opacity:1;fill-rule:evenodd;stroke:none;stroke-linejoin:round"
       d="M 52.185144,233.63665 93.282833,248.98256 139.83821,235.21997 94.910835,223.96253 Z" />
    <path
       inkscape:connector-curvature="0"
       id="path6719"
       style="fill:#e9e9ff;fill-opacity:1;fill-rule:evenodd;stroke:none;stroke-linejoin:round"
       d="m 94.910835,190.49687 44.927375,4.05124 v 40.67186 L 94.910835,223.96253 Z" />
    <path
       inkscape:connector-curvature="0"
       id="path6721"
       style="fill:#9d9f4d;fill-opacity:1"
       d="m 52.185144,196.13915 41.097689,6.05781 46.555377,-7.64885 -44.927375,-4.05124 z" />
    <path
       inkscape:connector-curvature="0"
       id="path6723"
       style="fill:#faffd7;fill-opacity:1"
       d="m 93.282833,202.19696 v 46.7856 l 46.555377,-13.76259 v -40.67186 z" />
    <path
       inkscape:connector-curvature="0"
       id="path6725"
       style="fill:#bfbc86;fill-opacity:1"
       d="m 52.185144,196.13915 41.097689,6.05781 v 46.7856 L 52.185144,233.63665 Z" />
    <path
       inkscape:connector-curvature="0"
       id="path7015"
       style="fill:#353564;fill-opacity:1;fill-rule:evenodd;stroke:none;stroke-width:1.61557412;stroke-linejoin:round"
       d="m 57.559905,187.16403 v 8.81556 l 37.509064,-4.46042 v -7.41907 z" />
    <path
       inkscape:connector-curvature="0"
       id="path7017"
       style="fill:#afafde;fill-opacity:1;fill-rule:evenodd;stroke:none;stroke-width:1.61557412;stroke-linejoin:round"
       d="m 57.559905,195.97959 35.722928,6.21737 40.586907,-6.93903 -38.800771,-3.73876 z" />
    <path
       inkscape:connector-curvature="0"
       id="path7019"
       style="fill:#e9e9ff;fill-opacity:1;fill-rule:evenodd;stroke:none;stroke-width:1.61557412;stroke-linejoin:round"
       d="m 95.068969,184.1001 38.800771,1.70364 v 9.45419 l -38.800771,-3.73876 z" />
    <path
       inkscape:connector-curvature="0"
       id="path7021"
       style="fill:#a94343;fill-opacity:1;fill-rule:evenodd;stroke:none;stroke-width:1.61557412;stroke-linejoin:round"
       d="m 57.559905,187.16403 35.722928,3.18757 40.586907,-4.54786 -38.800771,-1.70364 z" />
    <path
       inkscape:connector-curvature="0"
       id="path7023"
       style="fill:#ffe3d7;fill-opacity:1;fill-rule:evenodd;stroke:none;stroke-width:1.61557412;stroke-linejoin:round"
       d="m 93.282833,190.3516 v 11.84536 l 40.586907,-6.93903 v -9.45419 z" />
    <path
       inkscape:connector-curvature="0"
       id="path7025"
       style="fill:#dc7069;fill-opacity:1;fill-rule:evenodd;stroke:none;stroke-width:1.61557412;stroke-linejoin:round"
       d="m 57.559905,187.16403 35.722928,3.18757 v 11.84536 l -35.722928,-6.21737 z" />
    <path
       inkscape:connector-curvature="0"
       style="fill:#00617e;stroke-width:0.1488394;fill-opacity:1"
       d="m 130.93768,151.76652 c 0,21.31023 -16.84578,38.58508 -37.626717,38.58508 -20.780929,0 -37.62672,-17.27485 -37.62672,-38.58508 0,-21.31022 16.845791,-38.58507 37.62672,-38.58507 20.780937,0 37.626717,17.27485 37.626717,38.58507 z m 0,0"
       id="path2" />
    <path
       inkscape:connector-curvature="0"
       style="fill:#034051;stroke-width:0.1488394"
       d="m 130.93768,151.76652 c 0,-2.11837 -0.1688,-4.19552 -0.48917,-6.22144 l -6.13294,-6.28856 -3.01078,5.30297 -16.4548,-16.87331 -28.905554,35.59769 25.508954,26.15927 c 2.58074,-0.58404 5.06274,-1.43776 7.41442,-2.53461 l 0.42544,-0.43628 0.15444,0.15837 c 12.70567,-6.19494 21.48999,-19.47681 21.48999,-34.8641 z m 0,0"
       id="path4" />
    <path
       inkscape:connector-curvature="0"
       style="fill:#ffe000;stroke-width:0.1488394"
       d="m 124.31557,139.25652 -10.12664,9.74518 3.6452,2.74068 -5.29414,5.72571 2.52449,1.81927 -6.68814,9.91829 12.41862,-10.01308 -2.69099,-2.31266 5.03232,-5.55201 -3.82949,-3.07922 z m 0,0"
       id="path6" />
    <path
       inkscape:connector-curvature="0"
       style="fill:#d7d7d7;stroke-width:0.1488394"
       d="m 112.17313,152.31937 c 0,-1.50958 -0.65969,-2.8608 -1.69887,-3.76807 1.03918,-0.90787 1.69887,-2.2585 1.69887,-3.76808 0,-2.73303 -2.16048,-4.94854 -4.82562,-4.94854 -2.66517,0 -4.82565,2.21551 -4.82565,4.94854 0,1.50958 0.65968,2.86021 1.69887,3.76808 -1.03919,0.90727 -1.69887,2.25849 -1.69887,3.76807 0,1.46779 0.62408,2.78602 1.61391,3.69272 -0.9904,0.9061 -1.61391,2.22434 -1.61391,3.6927 0,2.73304 2.16048,4.94855 4.82565,4.94855 2.66514,0 4.82562,-2.21551 4.82562,-4.94855 0,-1.46836 -0.62409,-2.7866 -1.6139,-3.6927 0.98981,-0.9067 1.6139,-2.22493 1.6139,-3.69272 z m 0,0"
       id="path8" />
    <path
       inkscape:connector-curvature="0"
       style="fill:#e6e6e6;stroke-width:0.1488394"
       d="m 84.100068,152.31937 c 0,-1.50958 -0.659688,-2.8608 -1.698881,-3.76807 1.039193,-0.90787 1.698881,-2.2585 1.698881,-3.76808 0,-2.73303 -2.160489,-4.94854 -4.825635,-4.94854 -2.665146,0 -4.825627,2.21551 -4.825627,4.94854 0,1.50958 0.659679,2.86021 1.698872,3.76808 -1.039193,0.90727 -1.698872,2.25849 -1.698872,3.76807 0,1.46779 0.624086,2.78602 1.613903,3.69272 -0.990392,0.9061 -1.613903,2.22434 -1.613903,3.6927 0,2.73304 2.160481,4.94855 4.825627,4.94855 2.665146,0 4.825635,-2.21551 4.825635,-4.94855 0,-1.46836 -0.624095,-2.7866 -1.613902,-3.6927 0.989807,-0.9067 1.613902,-2.22493 1.613902,-3.69272 z m 0,0"
       id="path10" />
    <path
       inkscape:connector-curvature="0"
       style="fill:#faa68e;stroke-width:0.1488394"
       d="m 120.29315,178.65468 -4.82677,-6.25795 -14.98214,-5.595 c -1.381927,-0.51635 -2.301137,-1.86342 -2.301137,-3.37185 v -3.32767 h -9.744274 v 3.32767 c 0,1.50843 -0.919196,2.8555 -2.301149,3.37185 l -14.982134,5.595 -4.627555,6.46755 c 6.822485,7.09104 16.30151,11.48732 26.782972,11.48732 10.584237,0 20.145937,-4.48342 26.982187,-11.69692 z m 0,0"
       id="path12" />
    <path
       inkscape:connector-curvature="0"
       style="fill:#e09380;stroke-width:0.1488394"
       d="m 115.46638,172.39673 -14.98214,-5.595 c -1.381927,-0.51635 -2.301137,-1.86342 -2.301137,-3.37185 v -3.32767 h -4.90027 v 30.2488 c 0.01,0 0.019,4.2e-4 0.0281,4.2e-4 10.584237,0 20.145927,-4.48342 26.982177,-11.69692 z m 0,0"
       id="path14" />
    <path
       inkscape:connector-curvature="0"
       style="fill:#ffbeaa;stroke-width:0.1488394"
       d="m 84.884335,146.07497 c 0,2.37035 -1.873409,4.29148 -4.184894,4.29148 -2.3109,0 -4.184318,-1.92113 -4.184318,-4.29148 0,-2.36977 1.873418,-4.29089 4.184318,-4.29089 2.311485,0 4.184894,1.92112 4.184894,4.29089 z m 0,0"
       id="path16" />
    <path
       inkscape:connector-curvature="0"
       style="fill:#faa68e;stroke-width:0.1488394"
       d="m 110.1068,146.07497 c 0,2.37035 -1.8734,4.29148 -4.18432,4.29148 -2.31148,0 -4.18489,-1.92113 -4.18489,-4.29148 0,-2.36977 1.87341,-4.29089 4.18489,-4.29089 2.31092,0 4.18432,1.92112 4.18432,4.29089 z m 0,0"
       id="path18" />
    <path
       inkscape:connector-curvature="0"
       style="fill:#ffbeaa;stroke-width:0.1488394"
       d="m 98.882973,162.14169 -2.79432,1.4719 c -1.74367,0.91845 -3.811715,0.91845 -5.554792,0 l -2.794338,-1.4719 C 83.598269,159.95973 80.99455,155.587 80.99455,150.81273 v -11.16999 c 0,-6.97564 5.514022,-12.6307 12.316993,-12.6307 6.801807,0 12.316397,5.65506 12.316397,12.6307 v 11.16999 c 0,4.77427 -2.60371,9.14759 -6.744967,11.32896 z m 0,0"
       id="path20" />
    <path
       inkscape:connector-curvature="0"
       style="fill:#faa68e;stroke-width:0.1488394"
       d="m 93.310963,127.01204 c -0.009,0 -0.019,5.6e-4 -0.0281,5.6e-4 v 37.28864 c 0.96226,0.005 1.92508,-0.22373 2.80524,-0.68768 l 2.79491,-1.47191 c 4.141247,-2.18194 6.744967,-6.55468 6.744967,-11.32894 v -11.16998 c 0,-6.97565 -5.5146,-12.6307 -12.316987,-12.6307 z m 0,0"
       id="path22" />
    <path
       inkscape:connector-curvature="0"
       style="fill:#ffffff;stroke-width:0.1488394"
       d="m 97.573943,176.93726 h -8.525951 c -4.667173,0 -8.450743,-3.87994 -8.450743,-8.66598 v -14.15501 c 0,-1.7969 1.420421,-3.25409 3.173258,-3.25409 h 19.080333 c 1.75284,0 3.17384,1.45719 3.17384,3.25409 v 14.15501 c 0,4.78604 -3.78358,8.66598 -8.450737,8.66598 z m 0,0"
       id="path24" />
    <path
       inkscape:connector-curvature="0"
       style="fill:#f2f6fc;stroke-width:0.1488394"
       d="m 102.85142,150.86218 h -9.568587 v 26.07508 h 4.29111 c 4.667167,0 8.450737,-3.87994 8.450737,-8.66598 v -14.15501 c 0,-1.7969 -1.421,-3.25409 -3.17326,-3.25409 z m 0,0"
       id="path26" />
    <path
       inkscape:connector-curvature="0"
       style="fill:#ffbeaa;stroke-width:0.1488394"
       d="m 89.146744,155.73537 h 8.329019 v 2.2108 h -8.329019 z m 0,0"
       id="path28" />
    <path
       inkscape:connector-curvature="0"
       style="fill:#faa68e;stroke-width:0.1488394"
       d="m 93.282833,155.73537 h 4.19293 v 2.2108 h -4.19293 z m 0,0"
       id="path30" />
    <path
       inkscape:connector-curvature="0"
       style="fill:#ffffff;stroke-width:0.1488394"
       d="m 106.49719,132.28146 c 0.0425,-0.26553 0.066,-0.53754 0.066,-0.81484 0,-2.73304 -2.16048,-4.94914 -4.82563,-4.94914 -1.10522,0 -2.123157,0.38211 -2.936707,1.02268 -0.9858,-1.30705 -2.52908,-2.15015 -4.26528,-2.15015 -0.62522,0 -1.2252,0.11068 -1.783839,0.31145 -0.851448,-0.57757 -1.871119,-0.91434 -2.968299,-0.91434 -2.305737,0 -4.272736,1.48544 -5.042078,3.57437 -0.409934,-0.10245 -0.837665,-0.15779 -1.27803,-0.15779 -2.976335,0 -5.389436,2.47397 -5.389436,5.5267 0,0.41744 0.0471,0.82427 0.132622,1.21521 -1.230376,1.01326 -2.018665,2.56699 -2.018665,4.31091 0,3.05214 2.412526,5.5267 5.389437,5.5267 2.976327,0 5.389436,-2.47397 5.389436,-5.5267 0,-0.0295 -0.0026,-0.0589 -0.0026,-0.0889 0.310607,0.0577 0.630408,0.0889 0.957663,0.0889 2.134073,0 3.97821,-1.27232 4.850893,-3.1175 0.552896,0.19606 1.145406,0.3044 1.763176,0.3044 1.44798,0 2.76218,-0.58758 3.73018,-1.54079 0.75269,0.79895 1.764317,1.33825 2.896527,1.47602 -0.0431,0.26554 -0.0666,0.53754 -0.0666,0.81484 0,2.73304 2.16106,4.94914 4.82621,4.94914 2.66514,0 4.82563,-2.2161 4.82563,-4.94914 0,-2.53344 -1.85677,-4.62059 -4.25092,-4.91203 z m 0,0"
       id="path32" />
    <path
       inkscape:connector-curvature="0"
       style="fill:#f2f6fc;stroke-width:0.1488394"
       d="m 106.49719,132.28146 c 0.0425,-0.26553 0.066,-0.53754 0.066,-0.81484 0,-2.73304 -2.16048,-4.94914 -4.82563,-4.94914 -1.10522,0 -2.123157,0.38211 -2.936707,1.02268 -0.9858,-1.30705 -2.52908,-2.15015 -4.26528,-2.15015 -0.43174,0 -0.85029,0.0536 -1.25276,0.15249 v 10.74784 c 0.40247,0.0989 0.82102,0.15308 1.25276,0.15308 1.44856,0 2.76276,-0.58758 3.73075,-1.54079 0.75212,0.79895 1.763757,1.33825 2.896527,1.47602 -0.043,0.26554 -0.0666,0.53754 -0.0666,0.81484 0,2.73304 2.16049,4.94914 4.82564,4.94914 2.66515,0 4.82621,-2.2161 4.82621,-4.94914 0,-2.53344 -1.85677,-4.62059 -4.25093,-4.91203 z m 0,0"
       id="path34" />
    <path
       inkscape:connector-curvature="0"
       style="fill:#e6e6e6;stroke-width:0.1488394"
       d="m 93.310963,190.3516 c 6.4246,0 12.470857,-1.65442 17.761537,-4.56584 l 2.00948,-14.27924 -3.24444,-1.21167 c -1.16895,2.77837 -7.03722,12.102 -33.893679,15.70698 5.195944,2.77778 11.102105,4.34977 17.367102,4.34977 z m 0,0"
       id="path36" />
    <path
       inkscape:connector-curvature="0"
       style="fill:#d7d7d7;stroke-width:0.1488394"
       d="m 109.83754,170.29485 c -0.85663,2.03594 -4.2383,7.58797 -16.554707,11.82762 v 8.22913 h 0.0281 c 6.42461,0 12.470857,-1.65442 17.761537,-4.56584 l 2.00948,-14.27924 z m 0,0"
       id="path38" />
    <ellipse
       style="fill:#ffffff;stroke-width:0.26458332"
       id="path252"
       cx="88.759354"
       cy="144.67805"
       rx="2.8093958"
       ry="2.3704276" />
    <ellipse
       style="fill:#00617e;fill-opacity:1;stroke-width:0.37735417"
       id="path1069"
       cx="88.949753"
       cy="144.59937"
       rx="1.0664499"
       ry="1.1147515" />
    <ellipse
       style="fill:#ffffff;stroke-width:0.26458332"
       id="path252-2"
       cx="98.267296"
       cy="144.44406"
       rx="2.8093958"
       ry="2.3704276" />
    <ellipse
       style="fill:#00617e;fill-opacity:1;stroke-width:0.37735417"
       id="path1069-2"
       cx="98.219505"
       cy="144.18811"
       rx="1.0664499"
       ry="1.1147515" />
    <path
       style="fill:#f2f2f2;fill-opacity:1;stroke-width:0.26458332"
       id="path1142"
       d="m 86.559371,142.51339 c -0.01994,-0.23133 0.01398,-0.46135 0.07431,-0.68418 0.05127,-0.13639 0.136355,-0.25767 0.225428,-0.37196 0.601459,-0.69432 0.727629,-0.88872 1.367073,-1.06368 0.169484,-0.037 0.334807,-0.1038 0.508846,-0.11121 0.152842,-0.006 0.300645,-0.0204 0.453158,-0.0107 0.155708,8.7e-4 0.312381,0.0284 0.456182,0.0886 0.130244,0.0312 0.251365,0.0851 0.376017,0.13244 0.114472,0.0549 0.219289,0.12716 0.332546,0.18399 0.06114,0.061 0.148429,0.0648 0.21974,0.10546 0.0383,0.0218 0.07345,0.049 0.111655,0.0709 0.09407,0.084 0.20627,0.12884 0.31739,0.18182 0.119091,0.035 0.218318,0.11384 0.339072,0.1431 0.1308,0.0279 0.25462,0.0432 0.388831,0.0292 0.154739,-0.0312 0.321718,-0.043 0.462153,-0.11862 0.02134,-0.0116 0.04483,-0.0197 0.06408,-0.0347 0.0349,-0.0265 0.05954,-0.0649 0.09409,-0.0919 0.05747,-0.0449 0.122039,-0.0739 0.188112,-0.10336 0.416204,-0.28737 0.963712,-0.87746 -0.615602,0.64831 0.101965,-0.08 0.136814,-0.20187 0.2067,-0.3045 0.08847,-0.1079 0.125115,-0.21976 0.150309,-0.35478 0.01831,-0.10404 0.0064,-0.053 0.03564,-0.15325 0,0 1.036125,-0.79355 1.036125,-0.79355 v 0 c -0.05033,0.0764 -0.03019,0.0349 -0.05918,0.12512 -0.01379,0.13608 -0.01529,0.29155 -0.115875,0.39464 -0.08459,0.15726 0.02679,-0.0385 -0.07085,0.0997 -0.05059,0.0716 -0.03886,0.17316 -0.120854,0.22572 -0.386833,0.37804 -0.759538,0.86538 -1.256254,1.13577 -0.119891,0.0737 -0.219171,0.17841 -0.356727,0.22077 -0.161526,0.0453 -0.326749,0.0812 -0.494593,0.0919 -0.144909,0.002 -0.284974,-0.0226 -0.425053,-0.0592 -0.119857,-0.0447 -0.230215,-0.11079 -0.350933,-0.15396 -0.117287,-0.0507 -0.225174,-0.11408 -0.32736,-0.19132 -0.106575,-0.0643 -0.222523,-0.10499 -0.327291,-0.17244 -0.106529,-0.0596 -0.210725,-0.12349 -0.321981,-0.17426 -0.122168,-0.0509 -0.247795,-0.0895 -0.373172,-0.13139 -0.138246,-0.0443 -0.281119,-0.0613 -0.426214,-0.0612 -0.1458,-0.004 -0.291166,0.0163 -0.436731,0.0232 -0.16578,0.0319 -0.328029,0.0805 -0.490713,0.12511 -0.525997,0.16595 -1.008329,0.71977 0.527283,-0.697 -0.115032,0.0857 -0.176316,0.2157 -0.264379,0.3265 -0.08677,0.19847 -0.117408,0.4215 -0.111493,0.63704 0,0 -0.989529,0.8477 -0.989529,0.8477 z"
       inkscape:connector-curvature="0"
       inkscape:transform-center-x="0.17558721" />
    <path
       style="fill:#f2f2f2;fill-opacity:1;stroke-width:0.24506678"
       id="path1142-6"
       d="m 95.72398,142.01996 c -0.02111,-0.19884 0.01165,-0.3956 0.07087,-0.58571 0.05059,-0.11611 0.135055,-0.21865 0.223552,-0.31511 0.597958,-0.58498 0.723148,-0.74954 1.361705,-0.88822 0.169293,-0.0287 0.334279,-0.0831 0.508279,-0.0863 0.152803,-0.003 0.30053,-0.012 0.45309,-0.002 0.155708,0.003 0.312515,0.03 0.456642,0.0841 0.130452,0.0289 0.251801,0.0774 0.376678,0.12036 0.114792,0.0492 0.219934,0.11299 0.333474,0.16382 0.06143,0.0534 0.148744,0.0583 0.220253,0.0945 0.03835,0.0195 0.0737,0.0433 0.112025,0.0629 0.0945,0.0738 0.206922,0.11422 0.318302,0.16168 0.11933,0.0319 0.21891,0.10156 0.33978,0.12889 0.13094,0.0263 0.25484,0.0416 0.38895,0.0323 0.15459,-0.024 0.3215,-0.0311 0.46156,-0.0935 0.0213,-0.01 0.0447,-0.0162 0.064,-0.0287 0.0347,-0.0222 0.0592,-0.0547 0.0936,-0.0771 0.0573,-0.0376 0.12168,-0.0613 0.18759,-0.0853 0.41477,-0.23911 0.95928,-0.73565 -0.61233,0.54525 0.10159,-0.0668 0.13577,-0.17077 0.20517,-0.25756 0.0879,-0.091 0.12397,-0.18633 0.14851,-0.30172 0.0177,-0.089 0.006,-0.0454 0.0351,-0.13081 0,0 1.0321,-0.66236 1.0321,-0.66236 v 0 c -0.0499,0.0645 -0.0299,0.0294 -0.0587,0.10629 -0.013,0.11654 -0.0134,0.24992 -0.11388,0.33655 -0.0839,0.13341 0.0267,-0.0326 -0.0704,0.0842 -0.0502,0.0606 -0.0382,0.1478 -0.11968,0.1915 -0.38494,0.31744 -0.75519,0.72893 -1.25053,0.95204 -0.11953,0.0611 -0.21829,0.14916 -0.35562,0.18306 -0.1613,0.0359 -0.32634,0.0637 -0.49414,0.07 -0.144905,-6.4e-4 -0.285076,-0.0245 -0.425356,-0.0583 -0.120079,-0.0405 -0.230763,-0.0992 -0.351694,-0.13837 -0.117528,-0.0456 -0.225747,-0.10189 -0.328319,-0.17002 -0.106899,-0.0571 -0.22305,-0.0941 -0.328155,-0.15382 -0.106823,-0.0532 -0.21135,-0.10968 -0.322853,-0.15526 -0.122421,-0.0459 -0.248238,-0.0813 -0.373822,-0.11944 -0.138474,-0.0405 -0.28146,-0.0576 -0.426503,-0.0602 -0.145786,-0.007 -0.291086,0.009 -0.436609,0.0121 -0.165611,0.0244 -0.32762,0.0631 -0.490077,0.0986 -0.525156,0.13298 -1.004694,0.59954 0.523769,-0.58862 -0.114597,0.0715 -0.175228,0.18192 -0.262732,0.27542 -0.08577,0.16874 -0.115286,0.35956 -0.108284,0.54459 0,0 -0.98525,0.70964 -0.98525,0.70964 z"
       inkscape:connector-curvature="0" />
  </g>
</svg>
