<?xml version="1.0" encoding="UTF-8" standalone="no"?>
<!-- Created with Inkscape (http://www.inkscape.org/) -->

<svg
   xmlns:dc="http://purl.org/dc/elements/1.1/"
   xmlns:cc="http://creativecommons.org/ns#"
   xmlns:rdf="http://www.w3.org/1999/02/22-rdf-syntax-ns#"
   xmlns:svg="http://www.w3.org/2000/svg"
   xmlns="http://www.w3.org/2000/svg"
   xmlns:sodipodi="http://sodipodi.sourceforge.net/DTD/sodipodi-0.dtd"
   xmlns:inkscape="http://www.inkscape.org/namespaces/inkscape"
   width="210mm"
   height="297mm"
   version="1.1"
   viewBox="0 0 210 297"
   id="svg7545"
   sodipodi:docname="lvl_2_HE.svg"
   inkscape:version="0.92.4 (5da689c313, 2019-01-14)">
  <defs
     id="defs7549" />
  <sodipodi:namedview
     pagecolor="#ffffff"
     bordercolor="#666666"
     borderopacity="1"
     objecttolerance="10"
     gridtolerance="10"
     guidetolerance="10"
     inkscape:pageopacity="0"
     inkscape:pageshadow="2"
     inkscape:window-width="1280"
     inkscape:window-height="961"
     id="namedview7547"
     showgrid="false"
     inkscape:zoom="1.0824912"
     inkscape:cx="396.85039"
     inkscape:cy="561.25984"
     inkscape:window-x="1912"
     inkscape:window-y="50"
     inkscape:window-maximized="1"
     inkscape:current-layer="svg7545" />
  <metadata
     id="metadata7497">
    <rdf:RDF>
      <cc:Work
         rdf:about="">
        <dc:format>image/svg+xml</dc:format>
        <dc:type
           rdf:resource="http://purl.org/dc/dcmitype/StillImage" />
        <dc:title />
      </cc:Work>
    </rdf:RDF>
  </metadata>
  <g
     id="g7543">
    <g
       fill="#8787be"
       fill-rule="evenodd"
       opacity=".868"
       id="g7513">
      <path
         d="m44.819 231.81v35.523l48.635-14.861v-31.254z"
         points="44.81876,267.3332 93.453539,252.47238 93.453539,221.21789 44.81876,231.81005 "
         fill="#353564"
         id="path7499" />
      <path
         d="m44.819 267.33 48.464 29.237 53.917-23.141-53.746-20.958z"
         points="93.282833,296.57045 147.19945,273.4299 93.453539,252.47238 44.81876,267.3332 "
         fill="#afafde"
         id="path7501" />
      <path
         d="m93.454 221.22 53.746 12.85v39.362l-53.746-20.958z"
         points="147.19945,234.06773 147.19945,273.4299 93.453539,252.47238 93.453539,221.21789 "
         fill="#e9e9ff"
         id="path7503" />
      <g
         id="g7511">
        <path
           d="m44.819 231.81 48.464 18.379 53.917-16.121-53.746-12.85z"
           points="93.282833,250.18901 147.19945,234.06773 93.453539,221.21789 44.81876,231.81005 "
           fill="#6d9f4d"
           id="path7505" />
        <path
           d="m93.283 250.19v46.381l53.917-23.141v-39.362z"
           points="93.282833,296.57045 147.19945,273.4299 147.19945,234.06773 93.282833,250.18901 "
           fill="#d7ffec"
           id="path7507" />
        <path
           d="m44.819 231.81 48.464 18.379v46.381l-48.464-29.237z"
           points="93.282833,250.18901 93.282833,296.57045 44.81876,267.3332 44.81876,231.81005 "
           fill="#97bf86"
           id="path7509" />
      </g>
    </g>
    <g
       fill-rule="evenodd"
       opacity=".868"
       id="g7527">
      <path
         d="m93.454 221.22 53.928-11.745z"
         points="93.453539,221.21789 147.38203,209.47283 147.38203,209.47283 93.453539,221.21789 "
         fill="#353564"
         id="path7515" />
      <path
         d="m93.454 221.22 53.928-11.745z"
         points="93.453539,221.21789 147.38203,209.47283 147.38203,209.47283 93.453539,221.21789 "
         fill="#afafde"
         id="path7517" />
      <path
         d="m93.454 221.22 53.928-11.745z"
         points="93.453539,221.21789 147.38203,209.47283 147.38203,209.47283 93.453539,221.21789 "
         fill="#d7d7ff"
         id="path7519" />
      <path
         d="m147.38 209.47z"
         points="147.38203,209.47283 147.38203,209.47283 147.38203,209.47283 147.38203,209.47283 "
         fill="#e9e9ff"
         id="path7521" />
      <path
         d="m93.454 221.22 53.928-11.745z"
         points="93.453539,221.21789 147.38203,209.47283 147.38203,209.47283 93.453539,221.21789 "
         fill="#4d4d9f"
         id="path7523" />
      <path
         d="m93.454 221.22z"
         points="93.453539,221.21789 93.453539,221.21789 93.453539,221.21789 93.453539,221.21789 "
         fill="#8686bf"
         id="path7525" />
    </g>
    <g
       fill-rule="evenodd"
       id="g7535">
      <path
         d="m52.185 196.14v37.498l42.726-9.6741v-33.466z"
         fill="#353564"
         id="path7529" />
      <path
         d="m52.185 233.64 41.098 15.346 46.555-13.763-44.927-11.257z"
         fill="#afafde"
         id="path7531" />
      <path
         d="m94.911 190.5 44.927 4.0512v40.672l-44.927-11.257z"
         fill="#e9e9ff"
         id="path7533" />
    </g>
    <path
       d="m52.185 196.14 41.098 6.0578 46.555-7.6488-44.927-4.0512z"
       fill="#9d9f4d"
       id="path7537" />
    <path
       d="m93.283 202.2v46.786l46.555-13.763v-40.672z"
       fill="#faffd7"
       id="path7539" />
    <path
       d="m52.185 196.14 41.098 6.0578v46.786l-41.098-15.346z"
       fill="#bfbc86"
       id="path7541" />
  </g>
  <path
     d="m 132.82408,160.52624 c 0,21.06173 -16.96131,38.13513 -37.884751,38.13513 -20.923441,0 -37.884751,-17.0734 -37.884751,-38.13513 0,-21.06172 16.96131,-38.13513 37.884751,-38.13513 20.923441,0 37.884751,17.07341 37.884751,38.13513 z m 0,0"
     id="path2"
     inkscape:connector-curvature="0"
     style="fill:#0adebf;stroke-width:0.14847553" />
  <path
     d="m 107.06736,137.54246 -28.134939,19.83966 35.481689,35.84009 c 10.21807,-6.19767 17.30411,-17.12388 18.29089,-29.78373 z m 0,0"
     id="path4"
     inkscape:connector-curvature="0"
     style="fill:#00ad90;stroke-width:0.14873284" />
  <path
     d="m 122.10657,187.06075 -4.85989,-6.20644 -15.08487,-5.54893 c -1.39143,-0.5121 -2.316941,-1.84809 -2.316941,-3.34408 v -3.30029 h -9.811087 v 3.30029 c 0,1.49599 -0.925502,2.83198 -2.31693,3.34408 l -15.084877,5.54893 -4.659288,6.41431 c 6.869272,7.03266 16.413294,11.39275 26.966642,11.39275 10.656821,0 20.284091,-4.44651 27.167241,-11.60062 z m 0,0"
     id="path6"
     inkscape:connector-curvature="0"
     style="fill:#faa68e;stroke-width:0.14873284" />
  <path
     d="m 117.24668,180.85431 -15.08487,-5.54893 c -1.39143,-0.5121 -2.316941,-1.84809 -2.316941,-3.34408 v -3.30029 H 94.911 v 29.99978 c 0.0092,0 0.01908,7.9e-4 0.02833,7.9e-4 10.65682,0 20.28409,-4.44652 27.16781,-11.60063 z m 0,0"
     id="path8"
     inkscape:connector-curvature="0"
     style="fill:#e09380;stroke-width:0.14873284" />
  <path
     d="m 94.939329,198.66137 c 6.468661,0 12.556381,-1.64079 17.883351,-4.52825 l 2.02326,-14.16168 -3.26671,-1.2017 c -1.17696,2.75549 -7.08547,12.00236 -34.126105,15.57767 5.231582,2.75491 11.178244,4.31396 17.486204,4.31396 z m 0,0"
     id="path10"
     inkscape:connector-curvature="0"
     style="fill:#00617e;stroke-width:0.14873284" />
  <path
     d="m 111.57923,178.76974 c -0.86249,2.01918 -4.26735,7.52549 -16.66823,11.73026 v 8.16137 h 0.02833 c 6.46866,0 12.55638,-1.64079 17.88335,-4.52825 l 2.02326,-14.16168 z m 0,0"
     id="path12"
     inkscape:connector-curvature="0"
     style="fill:#034051;stroke-width:0.14873284" />
  <path
     d="m 86.454914,154.74925 c 0,2.35084 -1.88626,4.25615 -4.213593,4.25615 -2.326753,0 -4.213013,-1.90531 -4.213013,-4.25615 0,-2.35026 1.88626,-4.25557 4.213013,-4.25557 2.327333,0 4.213593,1.90531 4.213593,4.25557 z m 0,0"
     id="path14"
     inkscape:connector-curvature="0"
     style="fill:#ffbeaa;stroke-width:0.14873284" />
  <path
     d="m 111.85035,154.74925 c 0,2.35084 -1.88626,4.25615 -4.21301,4.25615 -2.32733,0 -4.21359,-1.90531 -4.21359,-4.25615 0,-2.35026 1.88626,-4.25557 4.21359,-4.25557 2.32675,0 4.21301,1.90531 4.21301,4.25557 z m 0,0"
     id="path16"
     inkscape:connector-curvature="0"
     style="fill:#faa68e;stroke-width:0.14873284" />
  <path
     d="m 100.05654,171.41268 -2.813487,1.45979 c -1.755616,0.91091 -3.837842,0.91091 -5.592879,0 l -2.813494,-1.45979 c -4.169659,-2.16399 -6.791232,-6.50072 -6.791232,-11.23569 v -11.07803 c 0,-6.91821 5.551839,-12.52671 12.401452,-12.52671 6.84847,0 12.40088,5.6085 12.40088,12.52671 v 11.07803 c 0,4.73497 -2.62157,9.07229 -6.79124,11.23569 z m 0,0"
     id="path18"
     inkscape:connector-curvature="0"
     style="fill:#ffbeaa;stroke-width:0.14873284" />
  <path
     d="m 94.939329,135.84326 c -0.0092,0 -0.01908,6e-4 -0.02833,6e-4 v 36.98163 c 0.968857,0.005 1.93829,-0.22189 2.825057,-0.68201 l 2.813484,-1.45979 c 4.16967,-2.16398 6.79124,-6.50072 6.79124,-11.23568 v -11.07803 c 0,-6.91822 -5.55241,-12.52672 -12.401451,-12.52672 z m 0,0"
     id="path20"
     inkscape:connector-curvature="0"
     style="fill:#faa68e;stroke-width:0.14873284" />
  <path
     d="m 84.580217,158.03786 v -7.54418 h -2.44179 v 20.28985 c 0,4.74665 3.809516,8.59465 8.508691,8.59465 h 8.584419 c 4.699183,0 8.508693,-3.848 8.508693,-8.59465 v -20.28985 h -2.44179 v 7.54418 c 0,1.68342 -1.35096,3.04803 -3.01755,3.04803 H 87.597192 c -1.666013,0 -3.016975,-1.36461 -3.016975,-3.04803 z m 0,0"
     id="path22"
     inkscape:connector-curvature="0"
     style="fill:#00617e;stroke-width:0.14873284" />
  <path
     d="m 105.29844,150.49368 v 7.54418 c 0,1.68342 -1.35096,3.04803 -3.01755,3.04803 H 94.911 v 18.29229 h 4.320537 c 4.699183,0 8.508693,-3.848 8.508693,-8.59465 v -20.28985 z m 0,0"
     id="path24"
     inkscape:connector-curvature="0"
     style="fill:#034051;stroke-width:0.14873284" />
  <path
     d="m 90.746548,164.33012 h 8.386138 v 2.1926 h -8.386138 z m 0,0"
     id="path26"
     inkscape:connector-curvature="0"
     style="fill:#ffbeaa;stroke-width:0.14873284" />
  <path
     d="m 94.911,164.33012 h 4.221686 v 2.1926 H 94.911 Z m 0,0"
     id="path28"
     inkscape:connector-curvature="0"
     style="fill:#faa68e;stroke-width:0.14873284" />
  <path
     d="m 108.7294,141.93583 c 0.0428,-0.27503 0.0665,-0.55706 0.0665,-0.84493 0,-2.83315 -2.1753,-5.12969 -4.85873,-5.12969 -1.11279,0 -2.13772,0.3959 -2.95685,1.06039 -0.991981,-1.35527 -2.546426,-2.22939 -4.293948,-2.22939 -0.630105,0 -1.234192,0.11445 -1.796659,0.32291 -0.857287,-0.59851 -1.883947,-0.94769 -2.988648,-0.94769 -2.321555,0 -4.302038,1.53978 -5.076661,3.70493 -0.412745,-0.10627 -0.84341,-0.16349 -1.286796,-0.16349 -2.996742,0 -5.426393,2.56513 -5.426393,5.72878 0,0.43327 0.0474,0.85485 0.133533,1.26009 -1.238814,1.04988 -2.032511,2.6609 -2.032511,4.4687 0,3.16423 2.429072,5.72878 5.426393,5.72878 2.996745,0 5.426398,-2.56455 5.426398,-5.72878 0,-0.0304 -0.0024,-0.0613 -0.0024,-0.0917 0.312743,0.059 0.634731,0.0917 0.964232,0.0917 2.148705,0 4.005485,-1.31848 4.884158,-3.23138 0.556686,0.2032 1.153258,0.31473 1.77527,0.31473 1.457907,0 2.78112,-0.60844 3.755762,-1.59643 0.75785,0.82799 1.77642,1.38738 2.91639,1.53044 -0.0434,0.27444 -0.0671,0.55647 -0.0671,0.84434 0,2.83316 2.17587,5.13028 4.8593,5.13028 2.68342,0 4.85872,-2.29712 4.85872,-5.13028 0,-2.62586 -1.87007,-4.78985 -4.28007,-5.09231 z m 0,0"
     id="path30"
     inkscape:connector-curvature="0"
     style="fill:#00617e;stroke-width:0.14873284" />
  <path
     d="m 108.21599,141.77876 c 0.0428,-0.27503 0.0665,-0.55706 0.0665,-0.84493 0,-2.83315 -2.1753,-5.12969 -4.85873,-5.12969 -1.11279,0 -2.13772,0.3959 -2.95686,1.06039 -0.991973,-1.35527 -2.546419,-2.22939 -4.293942,-2.22939 -0.434715,0 -0.856707,0.0561 -1.26194,0.15825 v 11.14167 c 0.405233,0.10277 0.827225,0.15824 1.26194,0.15824 1.457907,0 2.78112,-0.60844 3.755751,-1.59701 0.757861,0.82858 1.776441,1.38738 2.916401,1.53044 -0.0434,0.27503 -0.0671,0.55706 -0.0671,0.84493 0,2.83315 2.17587,5.12969 4.8593,5.12969 2.68343,0 4.85873,-2.29654 4.85873,-5.12969 0,-2.62645 -1.87008,-4.79044 -4.28008,-5.0929 z m 0,0"
     id="path32"
     inkscape:connector-curvature="0"
     style="fill:#034051;stroke-width:0.14873284" />
  <ellipse
     style="opacity:0.86799999;fill:#a94343;fill-opacity:1;stroke-width:0.22249292"
     id="path7182"
     cx="90.692566"
     cy="154.80002"
     rx="2.3854771"
     ry="2.4530575" />
  <ellipse
     style="opacity:0.86799999;fill:#ffffff;fill-opacity:1;stroke-width:0.26458332"
     id="path7198"
     cx="90.725815"
     cy="155.00731"
     rx="1.3282295"
     ry="1.5407463" />
  <ellipse
     style="opacity:0.86799999;fill:#000000;fill-opacity:1;stroke-width:0.48862445"
     id="path7200"
     cx="90.686417"
     cy="155.1273"
     rx="0.88759178"
     ry="0.95446765" />
  <ellipse
     style="opacity:0.86799999;fill:#a94343;fill-opacity:1;stroke-width:0.22887288"
     id="path7182-0"
     cx="98.93586"
     cy="154.66862"
     rx="2.5242443"
     ry="2.4530575" />
  <ellipse
     style="opacity:0.86799999;fill:#ffffff;fill-opacity:1;stroke-width:0.26458332"
     id="path7198-4"
     cx="98.922844"
     cy="154.69089"
     rx="1.3282295"
     ry="1.5407463" />
  <path
     style="opacity:0.86799999;fill:#000000;fill-opacity:1;stroke-width:0.26458332"
     id="path7289"
     d="m 88.752495,151.75754 c 0.179475,-0.21465 0.394293,-0.38968 0.62738,-0.54203 0.425976,-0.19094 1.120553,-0.7521 1.717119,-0.87119 0.175234,-0.0265 0.353002,-0.0259 0.529783,-0.0268 0.17924,-0.0187 0.346898,0.0178 0.520383,0.0538 0.16514,0.0433 0.301561,0.13524 0.441142,0.2281 0.119693,0.069 0.237496,0.13947 0.359535,0.20492 0.128733,0.0623 0.255939,0.12721 0.389522,0.18087 0.163854,0.0571 0.337902,0.0658 0.509691,0.0726 0.182546,-0.003 0.368524,0.0218 0.548259,-0.0148 0.179784,-0.0377 0.36862,-0.0717 0.534638,-0.15263 0.471477,-0.19693 0.101018,-0.0458 -1.039008,0.60094 0,0 1.283671,-0.49316 1.283671,-0.49316 v 0 c -1.271799,0.72335 -0.801489,0.5369 -1.325314,0.73968 -0.182152,0.0532 -0.364588,0.10718 -0.554419,0.12511 -0.187491,0.009 -0.37548,0.004 -0.562917,-0.005 -0.183335,-0.0139 -0.367056,-0.0366 -0.537564,-0.1101 -0.135766,-0.0595 -0.268814,-0.12308 -0.399844,-0.19238 -0.12234,-0.0709 -0.246573,-0.1378 -0.365159,-0.21501 -0.125794,-0.0858 -0.259006,-0.15564 -0.410546,-0.18396 -0.166185,-0.0337 -0.332028,-0.0393 -0.501563,-0.0307 -0.171392,0.004 -0.344802,0.008 -0.511183,0.0538 -0.501345,0.16103 -1.355616,0.67113 0.649118,-0.4565 -0.238617,0.13186 -0.456337,0.2929 -0.638622,0.49718 0,0 -1.264102,0.53709 -1.264102,0.53709 z"
     inkscape:connector-curvature="0" />
  <path
     style="opacity:0.86799999;fill:#000000;fill-opacity:1;stroke-width:0.26458332"
     id="path7291"
     d="m 96.965905,151.48585 c 0.06533,-0.25368 0.123198,-0.5133 0.275283,-0.73049 0.404911,-0.3997 0.117234,-0.12709 1.322216,-0.78264 0.02727,-0.0148 0.153641,-0.0187 0.18202,-0.0242 0.05155,-0.0101 0.100507,-0.0306 0.151257,-0.0441 0.165084,-0.0376 0.334994,-0.0421 0.50352,-0.0463 0.183534,-0.003 0.367108,-0.002 0.550658,-0.002 0.185201,2.6e-4 0.370411,5.3e-4 0.555621,5.3e-4 0.17175,-0.0193 0.31071,0.0715 0.46296,0.12987 0.1198,0.0668 0.23707,0.14282 0.36559,0.19194 0.14118,0.0281 0.23,0.1436 0.36354,0.19191 0.13821,0.0373 0.26883,0.0981 0.39874,0.15778 0.14416,0.0554 0.29998,0.0605 0.45244,0.0666 0.0954,-0.0358 0.20262,-0.0339 0.29912,-0.0625 0.0228,-0.007 0.0431,-0.0201 0.0647,-0.0302 -0.37602,0.21143 -0.75204,0.42287 -1.12807,0.63432 0.11244,-0.0706 0.22733,-0.13754 0.32831,-0.22417 0.0184,-0.0142 0.0367,-0.0284 0.0551,-0.0426 0,0 1.28453,-0.49489 1.28453,-0.49489 v 0 c -0.0204,0.009 -0.0408,0.0177 -0.0612,0.0265 -0.10997,0.077 -0.20194,0.17623 -0.32287,0.23863 -0.50729,0.28753 -1.01377,0.76829 -1.6355,0.7554 -0.16591,-0.013 -0.33234,-0.0333 -0.48398,-0.10717 -0.12919,-0.0601 -0.26467,-0.10494 -0.39754,-0.15608 -0.12276,-0.0632 -0.22593,-0.1577 -0.36322,-0.19146 -0.12261,-0.0602 -0.240851,-0.12903 -0.363541,-0.18908 -0.13948,-0.0605 -0.273875,-0.1044 -0.429561,-0.0882 -0.185217,-1.5e-4 -0.370433,-5.3e-4 -0.555649,-5.3e-4 -0.182634,0 -0.365358,-5.3e-4 -0.547878,0.007 -0.164349,0.009 -0.328716,0.0241 -0.487421,0.0707 -0.079,0.0197 -0.16225,0.029 -0.239572,0.0547 -0.0265,0.009 -0.101246,0.0466 -0.0773,0.0323 0.974606,-0.58424 1.485627,-0.83847 1.017153,-0.60342 -0.195267,0.16668 -0.250684,0.42668 -0.301553,0.66906 0,0 -1.237959,0.59304 -1.237959,0.59304 z"
     inkscape:connector-curvature="0" />
  <ellipse
     style="opacity:0.86799999;fill:#000000;fill-opacity:1;stroke-width:0.48862445"
     id="path7200-9"
     cx="98.950432"
     cy="154.7933"
     rx="0.88759178"
     ry="0.95446765" />
</svg>
