<?xml version="1.0" encoding="UTF-8" standalone="no"?>
<!-- Created with Inkscape (http://www.inkscape.org/) -->

<svg
   xmlns:dc="http://purl.org/dc/elements/1.1/"
   xmlns:cc="http://creativecommons.org/ns#"
   xmlns:rdf="http://www.w3.org/1999/02/22-rdf-syntax-ns#"
   xmlns:svg="http://www.w3.org/2000/svg"
   xmlns="http://www.w3.org/2000/svg"
   xmlns:sodipodi="http://sodipodi.sourceforge.net/DTD/sodipodi-0.dtd"
   xmlns:inkscape="http://www.inkscape.org/namespaces/inkscape"
   width="210mm"
   height="297mm"
   version="1.1"
   viewBox="0 0 210 297"
   id="svg1687"
   sodipodi:docname="lvl_2_JU.svg"
   inkscape:version="0.92.4 (5da689c313, 2019-01-14)">
  <defs
     id="defs1691" />
  <sodipodi:namedview
     pagecolor="#ffffff"
     bordercolor="#666666"
     borderopacity="1"
     objecttolerance="10"
     gridtolerance="10"
     guidetolerance="10"
     inkscape:pageopacity="0"
     inkscape:pageshadow="2"
     inkscape:window-width="1280"
     inkscape:window-height="961"
     id="namedview1689"
     showgrid="false"
     inkscape:zoom="0.84096521"
     inkscape:cx="396.85039"
     inkscape:cy="561.25984"
     inkscape:window-x="1912"
     inkscape:window-y="50"
     inkscape:window-maximized="1"
     inkscape:current-layer="svg1687" />
  <metadata
     id="metadata1639">
    <rdf:RDF>
      <cc:Work
         rdf:about="">
        <dc:format>image/svg+xml</dc:format>
        <dc:type
           rdf:resource="http://purl.org/dc/dcmitype/StillImage" />
        <dc:title></dc:title>
      </cc:Work>
    </rdf:RDF>
  </metadata>
  <g
     id="g1685">
    <g
       fill="#8787be"
       fill-rule="evenodd"
       opacity=".868"
       id="g1655">
      <path
         d="m44.819 231.81v35.523l48.635-14.861v-31.254z"
         points="44.81876,267.3332 93.453539,252.47238 93.453539,221.21789 44.81876,231.81005 "
         fill="#353564"
         id="path1641" />
      <path
         d="m44.819 267.33 48.464 29.237 53.917-23.141-53.746-20.958z"
         points="93.282833,296.57045 147.19945,273.4299 93.453539,252.47238 44.81876,267.3332 "
         fill="#afafde"
         id="path1643" />
      <path
         d="m93.454 221.22 53.746 12.85v39.362l-53.746-20.958z"
         points="147.19945,234.06773 147.19945,273.4299 93.453539,252.47238 93.453539,221.21789 "
         fill="#e9e9ff"
         id="path1645" />
      <g
         id="g1653">
        <path
           d="m44.819 231.81 48.464 18.379 53.917-16.121-53.746-12.85z"
           points="93.282833,250.18901 147.19945,234.06773 93.453539,221.21789 44.81876,231.81005 "
           fill="#6d9f4d"
           id="path1647" />
        <path
           d="m93.283 250.19v46.381l53.917-23.141v-39.362z"
           points="93.282833,296.57045 147.19945,273.4299 147.19945,234.06773 93.282833,250.18901 "
           fill="#d7ffec"
           id="path1649" />
        <path
           d="m44.819 231.81 48.464 18.379v46.381l-48.464-29.237z"
           points="93.282833,250.18901 93.282833,296.57045 44.81876,267.3332 44.81876,231.81005 "
           fill="#97bf86"
           id="path1651" />
      </g>
    </g>
    <g
       fill-rule="evenodd"
       opacity=".868"
       id="g1669">
      <path
         d="m93.454 221.22 53.928-11.745z"
         points="93.453539,221.21789 147.38203,209.47283 147.38203,209.47283 93.453539,221.21789 "
         fill="#353564"
         id="path1657" />
      <path
         d="m93.454 221.22 53.928-11.745z"
         points="93.453539,221.21789 147.38203,209.47283 147.38203,209.47283 93.453539,221.21789 "
         fill="#afafde"
         id="path1659" />
      <path
         d="m93.454 221.22 53.928-11.745z"
         points="93.453539,221.21789 147.38203,209.47283 147.38203,209.47283 93.453539,221.21789 "
         fill="#d7d7ff"
         id="path1661" />
      <path
         d="m147.38 209.47z"
         points="147.38203,209.47283 147.38203,209.47283 147.38203,209.47283 147.38203,209.47283 "
         fill="#e9e9ff"
         id="path1663" />
      <path
         d="m93.454 221.22 53.928-11.745z"
         points="93.453539,221.21789 147.38203,209.47283 147.38203,209.47283 93.453539,221.21789 "
         fill="#4d4d9f"
         id="path1665" />
      <path
         d="m93.454 221.22z"
         points="93.453539,221.21789 93.453539,221.21789 93.453539,221.21789 93.453539,221.21789 "
         fill="#8686bf"
         id="path1667" />
    </g>
    <g
       fill-rule="evenodd"
       id="g1677">
      <path
         d="m52.185 196.14v37.498l42.726-9.6741v-33.466z"
         fill="#353564"
         id="path1671" />
      <path
         d="m52.185 233.64 41.098 15.346 46.555-13.763-44.927-11.257z"
         fill="#afafde"
         id="path1673" />
      <path
         d="m94.911 190.5 44.927 4.0512v40.672l-44.927-11.257z"
         fill="#e9e9ff"
         id="path1675" />
    </g>
    <path
       d="m52.185 196.14 41.098 6.0578 46.555-7.6488-44.927-4.0512z"
       fill="#9d9f4d"
       id="path1679" />
    <path
       d="m93.283 202.2v46.786l46.555-13.763v-40.672z"
       fill="#faffd7"
       id="path1681" />
    <path
       d="m52.185 196.14 41.098 6.0578v46.786l-41.098-15.346z"
       fill="#bfbc86"
       id="path1683" />
  </g>
  <path
     inkscape:connector-curvature="0"
     style="fill:#00617e;fill-opacity:1;stroke-width:0.1488394"
     d="m 130.93784,163.61272 c 0,21.31023 -16.84578,38.58508 -37.62671,38.58508 -20.78093,0 -37.626721,-17.27485 -37.626721,-38.58508 0,-21.31022 16.845791,-38.58507 37.626721,-38.58507 20.78093,0 37.62671,17.27485 37.62671,38.58507 z m 0,0"
     id="path2" />
  <path
     inkscape:connector-curvature="0"
     style="fill:#034051;stroke-width:0.1488394"
     d="m 130.93784,163.61272 c 0,-2.11837 -0.1688,-4.19552 -0.48917,-6.22144 l -6.13294,-6.28856 -3.01078,5.30297 -16.4548,-16.87331 -28.905548,35.59769 25.508948,26.15927 c 2.58074,-0.58404 5.06274,-1.43776 7.41442,-2.53461 l 0.42544,-0.43628 0.15444,0.15837 c 12.70567,-6.19494 21.48999,-19.47681 21.48999,-34.8641 z m 0,0"
     id="path4" />
  <path
     inkscape:connector-curvature="0"
     style="fill:#ffe000;stroke-width:0.1488394"
     d="m 124.31573,151.10272 -10.12664,9.74518 3.6452,2.74068 -5.29414,5.72571 2.52449,1.81927 -6.68814,9.91829 12.41862,-10.01308 -2.69099,-2.31266 5.03232,-5.55201 -3.82949,-3.07922 z m 0,0"
     id="path6" />
  <path
     inkscape:connector-curvature="0"
     style="fill:#d7d7d7;stroke-width:0.1488394"
     d="m 112.17329,164.16557 c 0,-1.50958 -0.65969,-2.8608 -1.69887,-3.76807 1.03918,-0.90787 1.69887,-2.2585 1.69887,-3.76808 0,-2.73303 -2.16048,-4.94854 -4.82562,-4.94854 -2.66517,0 -4.82565,2.21551 -4.82565,4.94854 0,1.50958 0.65968,2.86021 1.69887,3.76808 -1.03919,0.90727 -1.69887,2.25849 -1.69887,3.76807 0,1.46779 0.62408,2.78602 1.61391,3.69272 -0.9904,0.9061 -1.61391,2.22434 -1.61391,3.6927 0,2.73304 2.16048,4.94855 4.82565,4.94855 2.66514,0 4.82562,-2.21551 4.82562,-4.94855 0,-1.46836 -0.62409,-2.7866 -1.6139,-3.6927 0.98981,-0.9067 1.6139,-2.22493 1.6139,-3.69272 z m 0,0"
     id="path8" />
  <path
     inkscape:connector-curvature="0"
     style="fill:#e6e6e6;stroke-width:0.1488394"
     d="m 84.100233,164.16557 c 0,-1.50958 -0.659686,-2.8608 -1.698879,-3.76807 1.039193,-0.90787 1.698879,-2.2585 1.698879,-3.76808 0,-2.73303 -2.160488,-4.94854 -4.825634,-4.94854 -2.665146,0 -4.825627,2.21551 -4.825627,4.94854 0,1.50958 0.659679,2.86021 1.698872,3.76808 -1.039193,0.90727 -1.698872,2.25849 -1.698872,3.76807 0,1.46779 0.624086,2.78602 1.613903,3.69272 -0.990392,0.9061 -1.613903,2.22434 -1.613903,3.6927 0,2.73304 2.160481,4.94855 4.825627,4.94855 2.665146,0 4.825634,-2.21551 4.825634,-4.94855 0,-1.46836 -0.624094,-2.7866 -1.6139,-3.6927 0.989806,-0.9067 1.6139,-2.22493 1.6139,-3.69272 z m 0,0"
     id="path10" />
  <path
     inkscape:connector-curvature="0"
     style="fill:#faa68e;stroke-width:0.1488394"
     d="m 120.29331,190.50088 -4.82677,-6.25795 -14.98214,-5.595 c -1.381917,-0.51635 -2.301137,-1.86342 -2.301137,-3.37185 v -3.32767 h -9.744268 v 3.32767 c 0,1.50843 -0.919194,2.8555 -2.301147,3.37185 l -14.982136,5.595 -4.627555,6.46755 c 6.822485,7.09104 16.30151,11.48732 26.782973,11.48732 10.58423,0 20.14593,-4.48342 26.98218,-11.69692 z m 0,0"
     id="path12" />
  <path
     inkscape:connector-curvature="0"
     style="fill:#e09380;stroke-width:0.1488394"
     d="m 115.46654,184.24293 -14.98214,-5.595 c -1.381917,-0.51635 -2.301137,-1.86342 -2.301137,-3.37185 v -3.32767 H 93.283 v 30.2488 c 0.01,0 0.019,5.3e-4 0.0281,5.3e-4 10.58423,0 20.14592,-4.48342 26.98218,-11.69692 z m 0,0"
     id="path14" />
  <path
     inkscape:connector-curvature="0"
     style="fill:#ffbeaa;stroke-width:0.1488394"
     d="m 84.8845,157.92117 c 0,2.37035 -1.873408,4.29148 -4.184893,4.29148 -2.3109,0 -4.184318,-1.92113 -4.184318,-4.29148 0,-2.36977 1.873418,-4.29089 4.184318,-4.29089 2.311485,0 4.184893,1.92112 4.184893,4.29089 z m 0,0"
     id="path16" />
  <path
     inkscape:connector-curvature="0"
     style="fill:#faa68e;stroke-width:0.1488394"
     d="m 110.10696,157.92117 c 0,2.37035 -1.8734,4.29148 -4.18432,4.29148 -2.31148,0 -4.18489,-1.92113 -4.18489,-4.29148 0,-2.36977 1.87341,-4.29089 4.18489,-4.29089 2.31092,0 4.18432,1.92112 4.18432,4.29089 z m 0,0"
     id="path18" />
  <path
     inkscape:connector-curvature="0"
     style="fill:#ffbeaa;stroke-width:0.1488394"
     d="m 98.883143,173.98789 -2.79432,1.4719 c -1.743675,0.91845 -3.811719,0.91845 -5.554796,0 l -2.794336,-1.4719 c -4.141256,-2.18196 -6.744975,-6.55469 -6.744975,-11.32896 v -11.16999 c 0,-6.97564 5.514022,-12.6307 12.316994,-12.6307 6.8018,0 12.31639,5.65506 12.31639,12.6307 v 11.16999 c 0,4.77427 -2.60371,9.14759 -6.744957,11.32896 z m 0,0"
     id="path20" />
  <path
     inkscape:connector-curvature="0"
     style="fill:#faa68e;stroke-width:0.1488394"
     d="m 93.31113,138.85824 c -0.009,0 -0.019,5.6e-4 -0.0281,5.6e-4 v 37.28864 c 0.96226,0.005 1.925082,-0.22373 2.805243,-0.68768 l 2.79491,-1.47191 c 4.141237,-2.18194 6.744957,-6.55468 6.744957,-11.32894 v -11.16998 c 0,-6.97565 -5.5146,-12.6307 -12.31698,-12.6307 z m 0,0"
     id="path22" />
  <path
     inkscape:connector-curvature="0"
     style="fill:#ffffff;stroke-width:0.1488394"
     d="m 97.574113,188.78346 h -8.525955 c -4.667173,0 -8.450743,-3.87994 -8.450743,-8.66598 v -14.15501 c 0,-1.7969 1.420421,-3.25409 3.173258,-3.25409 H 102.851 c 1.75284,0 3.17384,1.45719 3.17384,3.25409 v 14.15501 c 0,4.78604 -3.78358,8.66598 -8.450727,8.66598 z m 0,0"
     id="path24" />
  <path
     inkscape:connector-curvature="0"
     style="fill:#f2f6fc;stroke-width:0.1488394"
     d="M 102.85158,162.70838 H 93.283 v 26.07508 h 4.291113 c 4.667157,0 8.450727,-3.87994 8.450727,-8.66598 v -14.15501 c 0,-1.7969 -1.421,-3.25409 -3.17326,-3.25409 z m 0,0"
     id="path26" />
  <path
     inkscape:connector-curvature="0"
     style="fill:#ffbeaa;stroke-width:0.1488394"
     d="m 89.146911,167.58157 h 8.329022 v 2.2108 h -8.329022 z m 0,0"
     id="path28" />
  <path
     inkscape:connector-curvature="0"
     style="fill:#faa68e;stroke-width:0.1488394"
     d="m 93.283,167.58157 h 4.192933 v 2.2108 H 93.283 Z m 0,0"
     id="path30" />
  <path
     inkscape:connector-curvature="0"
     style="fill:#ffffff;stroke-width:0.1488394"
     d="m 106.49735,144.12766 c 0.0425,-0.26553 0.066,-0.53754 0.066,-0.81484 0,-2.73304 -2.16048,-4.94914 -4.82563,-4.94914 -1.10522,0 -2.123147,0.38211 -2.936697,1.02268 -0.9858,-1.30705 -2.52908,-2.15015 -4.265283,-2.15015 -0.625218,0 -1.225198,0.11068 -1.783836,0.31145 -0.851451,-0.57757 -1.87112,-0.91434 -2.9683,-0.91434 -2.305738,0 -4.272738,1.48544 -5.04208,3.57437 -0.409932,-0.10245 -0.837663,-0.15779 -1.27803,-0.15779 -2.976334,0 -5.389435,2.47397 -5.389435,5.5267 0,0.41744 0.0471,0.82427 0.132622,1.21521 -1.230376,1.01326 -2.018665,2.56699 -2.018665,4.31091 0,3.05214 2.412526,5.5267 5.389437,5.5267 2.976328,0 5.389437,-2.47397 5.389437,-5.5267 0,-0.0295 -0.0026,-0.0589 -0.0026,-0.0889 0.310607,0.0577 0.630409,0.0889 0.957665,0.0889 2.13407,0 3.978208,-1.27232 4.850892,-3.1175 0.552897,0.19606 1.145405,0.3044 1.763175,0.3044 1.44798,0 2.762181,-0.58758 3.730181,-1.54079 0.75269,0.79895 1.764317,1.33825 2.896517,1.47602 -0.0431,0.26554 -0.0666,0.53754 -0.0666,0.81484 0,2.73304 2.16106,4.94914 4.82621,4.94914 2.66514,0 4.82563,-2.2161 4.82563,-4.94914 0,-2.53344 -1.85677,-4.62059 -4.25092,-4.91203 z m 0,0"
     id="path32" />
  <path
     inkscape:connector-curvature="0"
     style="fill:#f2f6fc;stroke-width:0.1488394"
     d="m 106.49735,144.12766 c 0.0425,-0.26553 0.066,-0.53754 0.066,-0.81484 0,-2.73304 -2.16048,-4.94914 -4.82563,-4.94914 -1.10522,0 -2.123147,0.38211 -2.936697,1.02268 -0.9858,-1.30705 -2.52908,-2.15015 -4.265283,-2.15015 -0.431739,0 -0.850288,0.0536 -1.252759,0.15249 v 10.74784 c 0.402471,0.0989 0.82102,0.15308 1.252759,0.15308 1.448562,0 2.762763,-0.58758 3.730753,-1.54079 0.75212,0.79895 1.763747,1.33825 2.896527,1.47602 -0.043,0.26554 -0.0666,0.53754 -0.0666,0.81484 0,2.73304 2.16049,4.94914 4.82564,4.94914 2.66515,0 4.82621,-2.2161 4.82621,-4.94914 0,-2.53344 -1.85677,-4.62059 -4.25093,-4.91203 z m 0,0"
     id="path34" />
  <path
     inkscape:connector-curvature="0"
     style="fill:#e6e6e6;stroke-width:0.1488394"
     d="m 93.31113,202.1978 c 6.424603,0 12.47085,-1.65442 17.76153,-4.56584 l 2.00948,-14.27924 -3.24444,-1.21167 c -1.16895,2.77837 -7.03722,12.102 -33.893673,15.70698 5.195944,2.77778 11.102106,4.34977 17.367103,4.34977 z m 0,0"
     id="path36" />
  <path
     inkscape:connector-curvature="0"
     style="fill:#d7d7d7;stroke-width:0.1488394"
     d="m 109.8377,182.14105 c -0.85663,2.03594 -4.2383,7.58797 -16.5547,11.82762 v 8.22913 h 0.0281 c 6.424613,0 12.47085,-1.65442 17.76153,-4.56584 l 2.00948,-14.27924 z m 0,0"
     id="path38" />
  <ellipse
     style="fill:#ffffff;stroke-width:0.26458332"
     id="path252"
     cx="88.759514"
     cy="156.52426"
     rx="2.8093958"
     ry="2.3704278" />
  <ellipse
     style="fill:#00617e;fill-opacity:1;stroke-width:0.37735417"
     id="path1069"
     cx="88.949913"
     cy="156.44557"
     rx="1.0664499"
     ry="1.1147515" />
  <ellipse
     style="fill:#ffffff;stroke-width:0.26458332"
     id="path252-2"
     cx="98.267464"
     cy="156.29025"
     rx="2.8093958"
     ry="2.3704278" />
  <ellipse
     style="fill:#00617e;fill-opacity:1;stroke-width:0.37735417"
     id="path1069-2"
     cx="98.219673"
     cy="156.03432"
     rx="1.0664499"
     ry="1.1147515" />
  <path
     style="fill:#f2f2f2;fill-opacity:1;stroke-width:0.26458332"
     id="path1142"
     d="m 86.559538,154.35959 c -0.01995,-0.23133 0.01397,-0.46135 0.07431,-0.68418 0.05127,-0.13639 0.136353,-0.25767 0.225427,-0.37196 0.601459,-0.69432 0.727628,-0.88872 1.367073,-1.06368 0.169484,-0.037 0.334807,-0.1038 0.508844,-0.11121 0.152842,-0.006 0.300646,-0.0204 0.45316,-0.0107 0.155707,8e-4 0.31238,0.0284 0.456182,0.0886 0.130243,0.0312 0.251364,0.0851 0.376017,0.13244 0.114472,0.0549 0.21929,0.12717 0.332545,0.18399 0.06114,0.061 0.148428,0.0648 0.219741,0.10547 0.0383,0.0218 0.07345,0.049 0.111655,0.0709 0.09407,0.084 0.206269,0.12883 0.317388,0.18181 0.119092,0.035 0.218319,0.11384 0.339075,0.1431 0.130799,0.0279 0.254619,0.0432 0.388829,0.0292 0.154738,-0.0312 0.32172,-0.043 0.462153,-0.11862 0.02135,-0.0116 0.04483,-0.0197 0.06408,-0.0347 0.0349,-0.0265 0.05954,-0.0649 0.09409,-0.0919 0.05747,-0.0449 0.122039,-0.0739 0.188114,-0.10336 0.416202,-0.28737 0.96371,-0.87746 -0.615604,0.64831 0.101965,-0.08 0.136814,-0.20187 0.206701,-0.3045 0.08847,-0.1079 0.125116,-0.21976 0.150309,-0.35478 0.01831,-0.10404 0.0064,-0.053 0.03564,-0.15325 0,0 1.036124,-0.79355 1.036124,-0.79355 v 0 c -0.05033,0.0764 -0.03019,0.0349 -0.05918,0.12512 -0.01378,0.13608 -0.01529,0.29155 -0.115875,0.39464 -0.08459,0.15726 0.02679,-0.0385 -0.07085,0.0997 -0.05059,0.0716 -0.03886,0.17316 -0.120853,0.22572 -0.386835,0.37804 -0.75954,0.86538 -1.256255,1.13577 -0.119891,0.0737 -0.219171,0.17841 -0.356727,0.22077 -0.161526,0.0453 -0.32675,0.0812 -0.494594,0.0919 -0.14491,0.002 -0.284975,-0.0226 -0.425053,-0.0592 -0.119856,-0.0447 -0.230214,-0.11079 -0.350933,-0.15396 -0.117287,-0.0507 -0.225174,-0.11408 -0.327358,-0.19132 -0.106577,-0.0643 -0.222525,-0.10499 -0.327293,-0.17244 -0.106529,-0.0596 -0.210724,-0.12348 -0.321982,-0.17426 -0.122166,-0.0509 -0.247792,-0.0895 -0.373171,-0.13139 -0.138244,-0.0443 -0.281119,-0.0613 -0.426214,-0.0612 -0.145799,-0.004 -0.291166,0.0163 -0.436729,0.0232 -0.16578,0.0319 -0.328031,0.0805 -0.490715,0.12511 -0.525997,0.16596 -1.00833,0.71977 0.527283,-0.697 -0.115031,0.0857 -0.176316,0.2157 -0.264377,0.3265 -0.08677,0.19847 -0.117409,0.4215 -0.111496,0.63704 0,0 -0.989528,0.8477 -0.989528,0.8477 z"
     inkscape:connector-curvature="0"
     inkscape:transform-center-x="0.17558721" />
  <path
     style="fill:#f2f2f2;fill-opacity:1;stroke-width:0.24506678"
     id="path1142-6"
     d="m 95.724146,153.86616 c -0.02111,-0.19884 0.01164,-0.3956 0.07087,-0.58571 0.05059,-0.11611 0.135053,-0.21865 0.223547,-0.31511 0.59796,-0.58498 0.72315,-0.74954 1.36171,-0.88822 0.16929,-0.0287 0.33428,-0.0831 0.50828,-0.0863 0.1528,-0.003 0.30053,-0.012 0.45309,-0.002 0.1557,0.003 0.31251,0.03 0.45664,0.0841 0.13045,0.0289 0.2518,0.0774 0.37668,0.12036 0.11479,0.0492 0.21993,0.113 0.33347,0.16382 0.0614,0.0534 0.14874,0.0583 0.22025,0.0945 0.0383,0.0195 0.0737,0.0433 0.11203,0.0629 0.0945,0.0738 0.206917,0.11423 0.318297,0.16168 0.11933,0.0319 0.21891,0.10156 0.33978,0.1289 0.13094,0.0263 0.25484,0.0416 0.38895,0.0323 0.15459,-0.024 0.3215,-0.0311 0.46156,-0.0935 0.0213,-0.01 0.0447,-0.0162 0.064,-0.0287 0.0347,-0.0222 0.0592,-0.0547 0.0936,-0.0771 0.0573,-0.0376 0.12168,-0.0613 0.18759,-0.0853 0.41477,-0.23911 0.95928,-0.73565 -0.61233,0.54525 0.10159,-0.0668 0.13577,-0.17077 0.20517,-0.25757 0.0879,-0.091 0.12397,-0.18633 0.14851,-0.30172 0.0177,-0.089 0.006,-0.0454 0.0351,-0.13081 0,0 1.0321,-0.66235 1.0321,-0.66235 v 0 c -0.0499,0.0645 -0.0299,0.0294 -0.0587,0.10628 -0.013,0.11655 -0.0134,0.24993 -0.11388,0.33655 -0.0839,0.13342 0.0267,-0.0326 -0.0704,0.0842 -0.0502,0.0606 -0.0382,0.1478 -0.11968,0.19151 -0.38494,0.31743 -0.75519,0.72892 -1.25053,0.95203 -0.11953,0.0611 -0.21829,0.14916 -0.35562,0.18306 -0.1613,0.0359 -0.32634,0.0637 -0.49414,0.07 -0.144897,-5.2e-4 -0.285067,-0.0245 -0.425347,-0.0583 -0.12008,-0.0405 -0.23077,-0.0992 -0.3517,-0.13836 -0.11753,-0.0456 -0.22575,-0.1019 -0.32832,-0.17003 -0.1069,-0.0571 -0.22305,-0.0941 -0.32815,-0.15382 -0.10682,-0.0532 -0.21135,-0.10967 -0.32285,-0.15525 -0.12243,-0.0459 -0.24824,-0.0813 -0.37383,-0.11945 -0.13847,-0.0405 -0.28146,-0.0576 -0.4265,-0.0602 -0.14578,-0.007 -0.29108,0.009 -0.43661,0.0121 -0.16561,0.0244 -0.32762,0.0631 -0.49008,0.0986 -0.52515,0.13299 -1.004689,0.59954 0.52377,-0.58861 -0.11459,0.0715 -0.17522,0.18192 -0.26273,0.27542 -0.0858,0.16873 -0.11528,0.35955 -0.10828,0.54459 0,0 -0.985251,0.70963 -0.985251,0.70963 z"
     inkscape:connector-curvature="0" />
</svg>
