<?xml version="1.0" encoding="UTF-8" standalone="no"?>
<!-- Created with Inkscape (http://www.inkscape.org/) -->

<svg
   xmlns:osb="http://www.openswatchbook.org/uri/2009/osb"
   xmlns:dc="http://purl.org/dc/elements/1.1/"
   xmlns:cc="http://creativecommons.org/ns#"
   xmlns:rdf="http://www.w3.org/1999/02/22-rdf-syntax-ns#"
   xmlns:svg="http://www.w3.org/2000/svg"
   xmlns="http://www.w3.org/2000/svg"
   xmlns:sodipodi="http://sodipodi.sourceforge.net/DTD/sodipodi-0.dtd"
   xmlns:inkscape="http://www.inkscape.org/namespaces/inkscape"
   width="210mm"
   height="297mm"
   viewBox="0 0 210 297"
   version="1.1"
   id="svg5304"
   inkscape:version="0.92.4 (5da689c313, 2019-01-14)"
   sodipodi:docname="lvl_1_HE.svg">
  <defs
     id="defs5298">
    <inkscape:perspective
       sodipodi:type="inkscape:persp3d"
       inkscape:vp_x="-692.18234 : 323.03838 : 1"
       inkscape:vp_y="0 : 7601.3112 : 0"
       inkscape:vp_z="1436.7571 : 428.93647 : 1"
       inkscape:persp3d-origin="404.71867 : -58.521432 : 1"
       id="perspective6615" />
    <linearGradient
       id="linearGradient6431"
       osb:paint="solid">
      <stop
         style="stop-color:#b90a53;stop-opacity:1;"
         offset="0"
         id="stop6429" />
    </linearGradient>
    <inkscape:perspective
       sodipodi:type="inkscape:persp3d"
       inkscape:vp_x="-113.73265 : 125.3172 : 1"
       inkscape:vp_y="0 : 2011.1803 : 0"
       inkscape:vp_z="449.54924 : 153.33607 : 1"
       inkscape:persp3d-origin="176.48907 : 24.362831 : 1"
       id="perspective5306" />
    <inkscape:perspective
       sodipodi:type="inkscape:persp3d"
       inkscape:vp_x="-68.082231 : 172.69745 : 1"
       inkscape:vp_y="0 : 1434.2155 : 0"
       inkscape:vp_z="354.20068 : 172.69745 : 1"
       inkscape:persp3d-origin="143.05921 : 101.70379 : 1"
       id="perspective5306-6" />
  </defs>
  <sodipodi:namedview
     id="base"
     pagecolor="#ffffff"
     bordercolor="#666666"
     borderopacity="1.0"
     inkscape:pageopacity="0.0"
     inkscape:pageshadow="2"
     inkscape:zoom="0.75544332"
     inkscape:cx="480.14727"
     inkscape:cy="518.91939"
     inkscape:document-units="mm"
     inkscape:current-layer="layer1"
     showgrid="false"
     inkscape:window-width="1920"
     inkscape:window-height="1017"
     inkscape:window-x="-8"
     inkscape:window-y="-8"
     inkscape:window-maximized="1" />
  <metadata
     id="metadata5301">
    <rdf:RDF>
      <cc:Work
         rdf:about="">
        <dc:format>image/svg+xml</dc:format>
        <dc:type
           rdf:resource="http://purl.org/dc/dcmitype/StillImage" />
        <dc:title></dc:title>
      </cc:Work>
    </rdf:RDF>
  </metadata>
  <g
     inkscape:label="Layer 1"
     inkscape:groupmode="layer"
     id="layer1">
    <g
       sodipodi:type="inkscape:box3d"
       id="g6503"
       style="opacity:0.86799999;fill:#8787be;fill-opacity:1"
       inkscape:perspectiveID="#perspective5306"
       inkscape:corner0="0.83045816 : -0.0045277069 : 0 : 1"
       inkscape:corner7="0.40193245 : -0.036858797 : 0.25 : 1">
      <path
         sodipodi:type="inkscape:box3dside"
         id="path6505"
         style="fill:#353564;fill-rule:evenodd;stroke:none;stroke-linejoin:round"
         inkscape:box3dsidetype="6"
         d="M 44.81876,231.81005 V 267.3332 L 93.453539,252.47238 V 221.21789 Z"
         points="44.81876,267.3332 93.453539,252.47238 93.453539,221.21789 44.81876,231.81005 " />
      <path
         sodipodi:type="inkscape:box3dside"
         id="path6513"
         style="fill:#afafde;fill-rule:evenodd;stroke:none;stroke-linejoin:round"
         inkscape:box3dsidetype="13"
         d="M 44.81876,267.3332 93.282833,296.57045 147.19945,273.4299 93.453539,252.47238 Z"
         points="93.282833,296.57045 147.19945,273.4299 93.453539,252.47238 44.81876,267.3332 " />
      <path
         sodipodi:type="inkscape:box3dside"
         id="path6515"
         style="fill:#e9e9ff;fill-rule:evenodd;stroke:none;stroke-linejoin:round"
         inkscape:box3dsidetype="11"
         d="m 93.453539,221.21789 53.745911,12.84984 V 273.4299 L 93.453539,252.47238 Z"
         points="147.19945,234.06773 147.19945,273.4299 93.453539,252.47238 93.453539,221.21789 " />
      <path
         sodipodi:type="inkscape:box3dside"
         id="path6507"
         style="fill:#6d9f4d;fill-rule:evenodd;stroke:none;stroke-linejoin:round;fill-opacity:1"
         inkscape:box3dsidetype="5"
         d="M 44.81876,231.81005 93.282833,250.18901 147.19945,234.06773 93.453539,221.21789 Z"
         points="93.282833,250.18901 147.19945,234.06773 93.453539,221.21789 44.81876,231.81005 " />
      <path
         sodipodi:type="inkscape:box3dside"
         id="path6511"
         style="fill:#d7ffec;fill-rule:evenodd;stroke:none;stroke-linejoin:round;fill-opacity:1"
         inkscape:box3dsidetype="14"
         d="m 93.282833,250.18901 v 46.38144 L 147.19945,273.4299 v -39.36217 z"
         points="93.282833,296.57045 147.19945,273.4299 147.19945,234.06773 93.282833,250.18901 " />
      <path
         sodipodi:type="inkscape:box3dside"
         id="path6509"
         style="fill:#97bf86;fill-rule:evenodd;stroke:none;stroke-linejoin:round;fill-opacity:1"
         inkscape:box3dsidetype="3"
         d="m 44.81876,231.81005 48.464073,18.37896 v 46.38144 L 44.81876,267.3332 Z"
         points="93.282833,250.18901 93.282833,296.57045 44.81876,267.3332 44.81876,231.81005 " />
    </g>
    <g
       sodipodi:type="inkscape:box3d"
       id="g6587"
       style="opacity:0.86799999;fill:#8787be;fill-opacity:1"
       inkscape:perspectiveID="#perspective5306"
       inkscape:corner0="0.40077736 : 0.015695626 : 0 : 1"
       inkscape:corner7="0.40077736 : 0.015695626 : 0.25 : 1">
      <path
         sodipodi:type="inkscape:box3dside"
         id="path6589"
         style="fill:#353564;fill-rule:evenodd;stroke:none;stroke-linejoin:round"
         inkscape:box3dsidetype="6"
         d="m 93.453539,221.21789 v 0 l 53.928491,-11.74506 v 0 z"
         points="93.453539,221.21789 147.38203,209.47283 147.38203,209.47283 93.453539,221.21789 " />
      <path
         sodipodi:type="inkscape:box3dside"
         id="path6597"
         style="fill:#afafde;fill-rule:evenodd;stroke:none;stroke-linejoin:round"
         inkscape:box3dsidetype="13"
         d="m 93.453539,221.21789 0,0 53.928491,-11.74506 0,0 z"
         points="93.453539,221.21789 147.38203,209.47283 147.38203,209.47283 93.453539,221.21789 " />
      <path
         sodipodi:type="inkscape:box3dside"
         id="path6595"
         style="fill:#d7d7ff;fill-rule:evenodd;stroke:none;stroke-linejoin:round"
         inkscape:box3dsidetype="14"
         d="m 93.453539,221.21789 v 0 l 53.928491,-11.74506 v 0 z"
         points="93.453539,221.21789 147.38203,209.47283 147.38203,209.47283 93.453539,221.21789 " />
      <path
         sodipodi:type="inkscape:box3dside"
         id="path6599"
         style="fill:#e9e9ff;fill-rule:evenodd;stroke:none;stroke-linejoin:round"
         inkscape:box3dsidetype="11"
         d="m 147.38203,209.47283 0,0 v 0 l 0,0 z"
         points="147.38203,209.47283 147.38203,209.47283 147.38203,209.47283 147.38203,209.47283 " />
      <path
         sodipodi:type="inkscape:box3dside"
         id="path6591"
         style="fill:#4d4d9f;fill-rule:evenodd;stroke:none;stroke-linejoin:round"
         inkscape:box3dsidetype="5"
         d="m 93.453539,221.21789 0,0 53.928491,-11.74506 0,0 z"
         points="93.453539,221.21789 147.38203,209.47283 147.38203,209.47283 93.453539,221.21789 " />
      <path
         sodipodi:type="inkscape:box3dside"
         id="path6593"
         style="fill:#8686bf;fill-rule:evenodd;stroke:none;stroke-linejoin:round"
         inkscape:box3dsidetype="3"
         d="m 93.453539,221.21789 0,0 v 0 l 0,0 z"
         points="93.453539,221.21789 93.453539,221.21789 93.453539,221.21789 93.453539,221.21789 " />
    </g>
    <path
       inkscape:connector-curvature="0"
       id="path7021"
       style="fill:#a94343;fill-opacity:1;fill-rule:evenodd;stroke:none;stroke-width:1.61557412;stroke-linejoin:round"
       d="m 57.730611,237.31351 35.722928,3.18757 z"
       sodipodi:nodetypes="ccc" />
    <path
       d="m 131.36662,202.36595 c 0,21.06173 -16.96131,38.13513 -37.884751,38.13513 -20.92344,0 -37.884752,-17.0734 -37.884752,-38.13513 0,-21.06172 16.961312,-38.13513 37.884752,-38.13513 20.923441,0 37.884751,17.07341 37.884751,38.13513 z m 0,0"
       id="path2"
       inkscape:connector-curvature="0"
       style="fill:#0adebf;stroke-width:0.14847553" />
    <path
       d="m 105.6099,179.38217 -28.134941,19.83966 35.481691,35.84009 c 10.21807,-6.19767 17.30411,-17.12388 18.29089,-29.78373 z m 0,0"
       id="path4"
       inkscape:connector-curvature="0"
       style="fill:#00ad90;stroke-width:0.14873284" />
    <path
       d="m 120.64911,228.90046 -4.85989,-6.20644 -15.08487,-5.54893 c -1.391431,-0.5121 -2.316941,-1.84809 -2.316941,-3.34408 v -3.30029 h -9.81109 v 3.30029 c 0,1.49599 -0.9255,2.83198 -2.31693,3.34408 l -15.08487,5.54893 -4.659293,6.41431 c 6.869273,7.03266 16.413293,11.39275 26.966643,11.39275 10.656821,0 20.284091,-4.44651 27.167241,-11.60062 z m 0,0"
       id="path6"
       inkscape:connector-curvature="0"
       style="fill:#faa68e;stroke-width:0.14873284" />
    <path
       d="m 115.78922,222.69402 -15.08487,-5.54893 c -1.391431,-0.5121 -2.316941,-1.84809 -2.316941,-3.34408 v -3.30029 h -4.93387 v 29.99978 c 0.009,0 0.0191,8e-4 0.0283,8e-4 10.656821,0 20.284091,-4.44652 27.167811,-11.60063 z m 0,0"
       id="path8"
       inkscape:connector-curvature="0"
       style="fill:#e09380;stroke-width:0.14873284" />
    <path
       d="m 93.481869,240.50108 c 6.46865,0 12.556381,-1.64079 17.883351,-4.52825 l 2.02326,-14.16168 -3.26671,-1.2017 c -1.17696,2.75549 -7.08547,12.00236 -34.126101,15.57767 5.23158,2.75491 11.17824,4.31396 17.4862,4.31396 z m 0,0"
       id="path10"
       inkscape:connector-curvature="0"
       style="fill:#00617e;stroke-width:0.14873284" />
    <path
       d="m 110.12177,220.60945 c -0.86249,2.01918 -4.26735,7.52549 -16.668231,11.73026 v 8.16137 h 0.0283 c 6.46866,0 12.556381,-1.64079 17.883351,-4.52825 l 2.02326,-14.16168 z m 0,0"
       id="path12"
       inkscape:connector-curvature="0"
       style="fill:#034051;stroke-width:0.14873284" />
    <path
       d="m 84.997449,196.58896 c 0,2.35084 -1.88626,4.25615 -4.21359,4.25615 -2.32675,0 -4.21301,-1.90531 -4.21301,-4.25615 0,-2.35026 1.88626,-4.25557 4.21301,-4.25557 2.32733,0 4.21359,1.90531 4.21359,4.25557 z m 0,0"
       id="path14"
       inkscape:connector-curvature="0"
       style="fill:#ffbeaa;stroke-width:0.14873284" />
    <path
       d="m 110.39289,196.58896 c 0,2.35084 -1.88626,4.25615 -4.21301,4.25615 -2.32733,0 -4.21359,-1.90531 -4.21359,-4.25615 0,-2.35026 1.88626,-4.25557 4.21359,-4.25557 2.32675,0 4.21301,1.90531 4.21301,4.25557 z m 0,0"
       id="path16"
       inkscape:connector-curvature="0"
       style="fill:#faa68e;stroke-width:0.14873284" />
    <path
       d="m 98.599079,213.25239 -2.81349,1.45979 c -1.75561,0.91091 -3.83784,0.91091 -5.59288,0 l -2.81349,-1.45979 c -4.16966,-2.16398 -6.79123,-6.50072 -6.79123,-11.23568 v -11.07803 c 0,-6.91822 5.55184,-12.52672 12.40145,-12.52672 6.84846,0 12.400881,5.6085 12.400881,12.52672 v 11.07803 c 0,4.73496 -2.62157,9.07228 -6.791241,11.23568 z m 0,0"
       id="path18"
       inkscape:connector-curvature="0"
       style="fill:#ffbeaa;stroke-width:0.14873284" />
    <path
       d="m 93.481869,177.68297 c -0.009,0 -0.0191,6.1e-4 -0.0283,6.1e-4 v 36.98162 c 0.96886,0.005 1.93829,-0.22189 2.82506,-0.68201 l 2.81348,-1.45979 c 4.169671,-2.16398 6.791241,-6.50072 6.791241,-11.23568 v -11.07803 c 0,-6.91822 -5.55241,-12.52672 -12.401451,-12.52672 z m 0,0"
       id="path20"
       inkscape:connector-curvature="0"
       style="fill:#faa68e;stroke-width:0.14873284" />
    <path
       d="m 83.122759,199.87757 v -7.54418 h -2.44179 v 20.28986 c 0,4.74664 3.80951,8.59464 8.50869,8.59464 h 8.58442 c 4.699181,0 8.508691,-3.848 8.508691,-8.59464 v -20.28986 h -2.44179 v 7.54418 c 0,1.68342 -1.35096,3.04803 -3.01755,3.04803 H 86.139729 c -1.66601,0 -3.01697,-1.36461 -3.01697,-3.04803 z m 0,0"
       id="path22"
       inkscape:connector-curvature="0"
       style="fill:#00617e;stroke-width:0.14873284" />
    <path
       d="m 103.84098,192.33339 v 7.54418 c 0,1.68342 -1.35096,3.04803 -3.01755,3.04803 h -7.369891 v 18.29229 h 4.32054 c 4.699181,0 8.508691,-3.848 8.508691,-8.59464 v -20.28986 z m 0,0"
       id="path24"
       inkscape:connector-curvature="0"
       style="fill:#034051;stroke-width:0.14873284" />
    <path
       d="m 89.289089,206.16983 h 8.38614 v 2.1926 h -8.38614 z m 0,0"
       id="path26"
       inkscape:connector-curvature="0"
       style="fill:#ffbeaa;stroke-width:0.14873284" />
    <path
       d="m 93.453539,206.16983 h 4.22169 v 2.1926 h -4.22169 z m 0,0"
       id="path28"
       inkscape:connector-curvature="0"
       style="fill:#faa68e;stroke-width:0.14873284" />
    <path
       d="m 107.27194,183.77554 c 0.0428,-0.27503 0.0665,-0.55706 0.0665,-0.84493 0,-2.83315 -2.1753,-5.12969 -4.85873,-5.12969 -1.11279,0 -2.13772,0.3959 -2.956851,1.06039 -0.99198,-1.35527 -2.54643,-2.22939 -4.29395,-2.22939 -0.6301,0 -1.23419,0.11445 -1.79666,0.32291 -0.85728,-0.59851 -1.88394,-0.94769 -2.98864,-0.94769 -2.32156,0 -4.30204,1.53978 -5.07667,3.70493 -0.41274,-0.10627 -0.84341,-0.16349 -1.28679,-0.16349 -2.99674,0 -5.42639,2.56513 -5.42639,5.72878 0,0.43327 0.0474,0.85485 0.13353,1.26009 -1.23882,1.04988 -2.03251,2.6609 -2.03251,4.4687 0,3.16423 2.42907,5.72878 5.42639,5.72878 2.99675,0 5.4264,-2.56455 5.4264,-5.72878 0,-0.0304 -0.002,-0.0613 -0.002,-0.0917 0.31274,0.059 0.63473,0.0917 0.96423,0.0917 2.14871,0 4.00549,-1.31848 4.88416,-3.23138 0.55668,0.2032 1.15326,0.31473 1.77527,0.31473 1.45791,0 2.78112,-0.60844 3.75576,-1.59643 0.75785,0.82799 1.776421,1.38738 2.916391,1.53044 -0.0434,0.27444 -0.0671,0.55647 -0.0671,0.84434 0,2.83316 2.17587,5.13028 4.8593,5.13028 2.68342,0 4.85872,-2.29712 4.85872,-5.13028 0,-2.62586 -1.87007,-4.78985 -4.28007,-5.09231 z m 0,0"
       id="path30"
       inkscape:connector-curvature="0"
       style="fill:#00617e;stroke-width:0.14873284" />
    <path
       d="m 106.75853,183.61847 c 0.0428,-0.27503 0.0665,-0.55706 0.0665,-0.84493 0,-2.83315 -2.1753,-5.12969 -4.85873,-5.12969 -1.11279,0 -2.137731,0.3959 -2.956861,1.06039 -0.99197,-1.35527 -2.54642,-2.22939 -4.29394,-2.22939 -0.43472,0 -0.85671,0.0561 -1.26194,0.15825 v 11.14167 c 0.40523,0.10277 0.82722,0.15824 1.26194,0.15824 1.45791,0 2.78112,-0.60844 3.75575,-1.59701 0.75786,0.82858 1.776441,1.38738 2.916401,1.53044 -0.0434,0.27503 -0.0671,0.55706 -0.0671,0.84493 0,2.83315 2.17587,5.12969 4.8593,5.12969 2.68343,0 4.85873,-2.29654 4.85873,-5.12969 0,-2.62645 -1.87008,-4.79044 -4.28008,-5.0929 z m 0,0"
       id="path32"
       inkscape:connector-curvature="0"
       style="fill:#034051;stroke-width:0.14873284" />
    <ellipse
       style="opacity:0.86799999;fill:#a94343;fill-opacity:1;stroke-width:0.22249292"
       id="path7182"
       cx="89.2351"
       cy="196.63974"
       rx="2.3854771"
       ry="2.4530575" />
    <ellipse
       style="opacity:0.86799999;fill:#ffffff;fill-opacity:1;stroke-width:0.26458332"
       id="path7198"
       cx="89.268349"
       cy="196.84703"
       rx="1.3282295"
       ry="1.5407463" />
    <ellipse
       style="opacity:0.86799999;fill:#000000;fill-opacity:1;stroke-width:0.48862445"
       id="path7200"
       cx="89.228943"
       cy="196.96703"
       rx="0.88759178"
       ry="0.95446765" />
    <ellipse
       style="opacity:0.86799999;fill:#a94343;fill-opacity:1;stroke-width:0.22887288"
       id="path7182-0"
       cx="97.478394"
       cy="196.50835"
       rx="2.5242443"
       ry="2.4530575" />
    <ellipse
       style="opacity:0.86799999;fill:#ffffff;fill-opacity:1;stroke-width:0.26458332"
       id="path7198-4"
       cx="97.465378"
       cy="196.53061"
       rx="1.3282295"
       ry="1.5407463" />
    <path
       style="opacity:0.86799999;fill:#000000;fill-opacity:1;stroke-width:0.26458332"
       id="path7289"
       d="m 87.295039,193.59725 c 0.17947,-0.21464 0.39429,-0.38967 0.62738,-0.54203 0.42597,-0.19094 1.12055,-0.7521 1.71711,-0.87119 0.17524,-0.0265 0.35301,-0.0259 0.52979,-0.0268 0.17924,-0.0187 0.3469,0.0178 0.52038,0.0538 0.16514,0.0433 0.30156,0.13524 0.44114,0.22811 0.11969,0.069 0.2375,0.13947 0.35954,0.20491 0.12873,0.0623 0.25594,0.12721 0.38952,0.18087 0.16385,0.0571 0.3379,0.0658 0.50969,0.0726 0.18255,-0.003 0.36852,0.0218 0.54826,-0.0148 0.17978,-0.0377 0.36862,-0.0717 0.53464,-0.15263 0.47147,-0.19692 0.10102,-0.0458 -1.03901,0.60095 0,0 1.28367,-0.49317 1.28367,-0.49317 v 0 c -1.2718,0.72336 -0.80149,0.53691 -1.32531,0.73969 -0.18216,0.0532 -0.36459,0.10717 -0.55442,0.12511 -0.18749,0.009 -0.37548,0.004 -0.56292,-0.005 -0.18333,-0.0139 -0.36706,-0.0366 -0.53756,-0.11011 -0.13577,-0.0595 -0.26882,-0.12307 -0.39985,-0.19237 -0.12234,-0.0709 -0.24657,-0.1378 -0.36516,-0.21502 -0.12579,-0.0858 -0.259,-0.15563 -0.41054,-0.18395 -0.16619,-0.0337 -0.33203,-0.0393 -0.50157,-0.0307 -0.17139,0.004 -0.3448,0.008 -0.51118,0.0538 -0.50134,0.16103 -1.35561,0.67113 0.64912,-0.4565 -0.23862,0.13186 -0.45634,0.2929 -0.63862,0.49718 0,0 -1.2641,0.53709 -1.2641,0.53709 z"
       inkscape:connector-curvature="0" />
    <path
       style="opacity:0.86799999;fill:#000000;fill-opacity:1;stroke-width:0.26458332"
       id="path7291"
       d="m 95.508449,193.32556 c 0.0653,-0.25368 0.12319,-0.5133 0.27528,-0.73048 0.40491,-0.39971 0.11723,-0.1271 1.32221,-0.78265 0.0273,-0.0148 0.15364,-0.0187 0.18202,-0.0242 0.0515,-0.0101 0.10051,-0.0306 0.15126,-0.0441 0.16509,-0.0376 0.335,-0.0421 0.50352,-0.0463 0.18354,-0.003 0.36711,-0.002 0.55066,-0.002 0.1852,2.6e-4 0.37041,5.3e-4 0.55562,5.3e-4 0.17174,-0.0193 0.31071,0.0715 0.46296,0.12988 0.1198,0.0668 0.23707,0.14281 0.36559,0.19194 0.141171,0.0281 0.230001,0.1436 0.363541,0.1919 0.13821,0.0373 0.26883,0.0981 0.39874,0.15778 0.14416,0.0554 0.29998,0.0605 0.45244,0.0666 0.0954,-0.0358 0.20262,-0.0339 0.29912,-0.0625 0.0228,-0.007 0.0431,-0.0201 0.0647,-0.0302 -0.37602,0.21143 -0.75204,0.42287 -1.12807,0.63432 0.11244,-0.0706 0.22733,-0.13754 0.32831,-0.22417 0.0184,-0.0142 0.0367,-0.0284 0.0551,-0.0426 0,0 1.28453,-0.49489 1.28453,-0.49489 v 0 c -0.0204,0.009 -0.0408,0.0177 -0.0612,0.0265 -0.10997,0.077 -0.20194,0.17623 -0.32287,0.23863 -0.50729,0.28753 -1.01377,0.76829 -1.635501,0.7554 -0.16591,-0.013 -0.33234,-0.0333 -0.48398,-0.10717 -0.12919,-0.0601 -0.26467,-0.10494 -0.39754,-0.15608 -0.12276,-0.0632 -0.22594,-0.1577 -0.36323,-0.19146 -0.1226,-0.0602 -0.24085,-0.12903 -0.36353,-0.18908 -0.13948,-0.0605 -0.27388,-0.1044 -0.42956,-0.0882 -0.18522,-1.4e-4 -0.37043,-5.3e-4 -0.55565,-5.3e-4 -0.18263,0 -0.36536,-5.2e-4 -0.54788,0.007 -0.16435,0.009 -0.32871,0.0241 -0.48742,0.0707 -0.079,0.0197 -0.16225,0.029 -0.23957,0.0547 -0.0265,0.009 -0.10125,0.0466 -0.0773,0.0323 0.9746,-0.58423 1.48563,-0.83847 1.01715,-0.60341 -0.19527,0.16668 -0.25068,0.42667 -0.30155,0.66906 0,0 -1.23796,0.59303 -1.23796,0.59303 z"
       inkscape:connector-curvature="0" />
    <ellipse
       style="opacity:0.86799999;fill:#000000;fill-opacity:1;stroke-width:0.48862445"
       id="path7200-9"
       cx="97.492966"
       cy="196.63303"
       rx="0.88759178"
       ry="0.95446765" />
  </g>
</svg>
